<svg width="242" height="242" fill="none" xmlns="http://www.w3.org/2000/svg"><path d="M137.717 241.36a.853.853 0 10.001-1.707.853.853 0 00-.001 1.707zm-8.537 0a.854.854 0 100-1.708.854.854 0 000 1.708zm-8.538 0a.853.853 0 10.001-1.707.853.853 0 00-.001 1.707zm17.075-17.067a.853.853 0 10.001-1.707.853.853 0 00-.001 1.707zm-8.537 0a.854.854 0 100-1.708.854.854 0 000 1.708zm-8.538 0a.853.853 0 10.001-1.707.853.853 0 00-.001 1.707zm17.075-8.533a.853.853 0 10.001-1.707.853.853 0 00-.001 1.707zm-8.537 0a.854.854 0 100-1.708.854.854 0 000 1.708zm-8.538 0a.853.853 0 10.001-1.707.853.853 0 00-.001 1.707zm17.075-8.533a.854.854 0 100-1.707.854.854 0 000 1.707zm-8.537 0a.854.854 0 100-1.708.854.854 0 000 1.708zm-8.538 0a.854.854 0 100-1.707.854.854 0 000 1.707zm34.151-8.534a.853.853 0 100-1.706.853.853 0 000 1.706zm-8.538 0a.853.853 0 10.001-1.707.853.853 0 00-.001 1.707zm-8.538 0a.853.853 0 10.001-1.707.853.853 0 00-.001 1.707zm-8.537 0a.854.854 0 100-1.708.854.854 0 000 1.708zm-8.538 0a.853.853 0 10.001-1.707.853.853 0 00-.001 1.707zm34.151-8.533a.853.853 0 100-1.706.853.853 0 000 1.706zm-8.538 0a.853.853 0 10.001-1.707.853.853 0 00-.001 1.707zm-8.538 0a.853.853 0 10.001-1.707.853.853 0 00-.001 1.707zm-8.537 0a.854.854 0 100-1.708.854.854 0 000 1.708zm-8.538 0a.853.853 0 10.001-1.707.853.853 0 00-.001 1.707zm17.075 42.667a.854.854 0 100-1.707.854.854 0 000 1.707zm-8.537 0a.854.854 0 100-1.708.854.854 0 000 1.708zm-8.538 0a.854.854 0 100-1.707.854.854 0 000 1.707zm-8.537 8.533a.854.854 0 100-1.708.854.854 0 000 1.708zm-8.537 0a.853.853 0 100-1.706.853.853 0 000 1.706zm8.537-17.067a.854.854 0 100-1.708.854.854 0 000 1.708zm-8.537 0a.853.853 0 100-1.706.853.853 0 000 1.706zm8.537-8.533a.854.854 0 100-1.708.854.854 0 000 1.708zm-8.537 0a.853.853 0 100-1.706.853.853 0 000 1.706zm-8.538 0a.853.853 0 100-1.707.853.853 0 000 1.707zm-8.538 0a.853.853 0 10.001-1.707.853.853 0 000 1.707zm25.613-8.533a.854.854 0 100-1.708.854.854 0 000 1.708zm-8.537 0a.853.853 0 100-1.707.853.853 0 000 1.707zm-8.538 0a.854.854 0 100-1.707.854.854 0 000 1.707zm-8.538 0a.854.854 0 100-1.707.854.854 0 000 1.707zm25.613-8.534a.854.854 0 100-1.708.854.854 0 000 1.708zm-8.537 0a.853.853 0 100-1.706.853.853 0 000 1.706zm-8.538 0a.853.853 0 100-1.707.853.853 0 000 1.707zm-8.538 0a.853.853 0 10.001-1.707.853.853 0 000 1.707zm25.613-8.533a.854.854 0 100-1.708.854.854 0 000 1.708zm-8.537 0a.853.853 0 100-1.706.853.853 0 000 1.706zm-8.538 0a.853.853 0 100-1.707.853.853 0 000 1.707zm-8.538 0a.853.853 0 10.001-1.707.853.853 0 000 1.707zm25.613 42.667a.854.854 0 100-1.708.854.854 0 000 1.708zm-8.537 0a.853.853 0 100-1.707.853.853 0 000 1.707zm51.225-59.734a.853.853 0 100-1.706.853.853 0 000 1.706zm-8.538 0a.853.853 0 10.001-1.707.853.853 0 00-.001 1.707zm-8.538 0a.853.853 0 10.001-1.707.853.853 0 00-.001 1.707zm-8.537 0a.854.854 0 100-1.708.854.854 0 000 1.708zm-8.538 0a.853.853 0 10.001-1.707.853.853 0 00-.001 1.707zm34.151-8.533a.853.853 0 100-1.706.853.853 0 000 1.706zm-8.538 0a.853.853 0 10.001-1.707.853.853 0 00-.001 1.707zm-8.538 0a.853.853 0 10.001-1.707.853.853 0 00-.001 1.707zm-8.537 0a.854.854 0 100-1.708.854.854 0 000 1.708zm-8.538 0a.853.853 0 10.001-1.707.853.853 0 00-.001 1.707zm76.838-8.533a.854.854 0 100-1.707.854.854 0 000 1.707zm-8.538 0a.854.854 0 100-1.707.854.854 0 000 1.707zm-8.537 0a.854.854 0 100-1.708.854.854 0 000 1.708zm-8.538 0a.854.854 0 100-1.707.854.854 0 000 1.707zm-8.537 0a.854.854 0 100-1.708.854.854 0 000 1.708zm-8.537 0a.853.853 0 100-1.707.853.853 0 000 1.707zm-8.538 0a.854.854 0 100-1.707.854.854 0 000 1.707zm-8.538 0a.854.854 0 100-1.707.854.854 0 000 1.707zm-8.537 0a.854.854 0 100-1.708.854.854 0 000 1.708zm-8.538 0a.854.854 0 100-1.707.854.854 0 000 1.707zm76.838-8.534a.853.853 0 10.001-1.707.853.853 0 00-.001 1.707zm-8.538 0a.853.853 0 10.001-1.707.853.853 0 00-.001 1.707zm-8.537 0a.854.854 0 100-1.708.854.854 0 000 1.708zm-8.538 0a.853.853 0 10.001-1.707.853.853 0 00-.001 1.707zm-8.537 0a.854.854 0 100-1.708.854.854 0 000 1.708zm-8.537 0a.853.853 0 100-1.706.853.853 0 000 1.706zm-8.538 0a.853.853 0 10.001-1.707.853.853 0 00-.001 1.707zm-8.538 0a.853.853 0 10.001-1.707.853.853 0 00-.001 1.707zm-8.537 0a.854.854 0 100-1.708.854.854 0 000 1.708zm-8.538 0a.853.853 0 10.001-1.707.853.853 0 00-.001 1.707zm34.151 34.134a.854.854 0 10-.002-1.708.854.854 0 00.002 1.708zm-8.538 0a.854.854 0 100-1.708.854.854 0 000 1.708zm-8.538 0a.854.854 0 100-1.708.854.854 0 000 1.708zm-8.537 0a.854.854 0 100-1.706.854.854 0 000 1.706zm-8.538 0a.854.854 0 100-1.708.854.854 0 000 1.708zm-8.537-8.534a.854.854 0 100-1.708.854.854 0 000 1.708zm-8.537 0a.853.853 0 100-1.706.853.853 0 000 1.706zm-8.538 0a.853.853 0 100-1.707.853.853 0 000 1.707zm-8.538 0a.853.853 0 10.001-1.707.853.853 0 000 1.707zm25.613-8.533a.854.854 0 100-1.708.854.854 0 000 1.708zm-8.537 0a.853.853 0 100-1.706.853.853 0 000 1.706zm-8.538 0a.853.853 0 100-1.707.853.853 0 000 1.707zm-8.538 0a.853.853 0 10.001-1.707.853.853 0 000 1.707zm25.613-8.533a.854.854 0 100-1.708.854.854 0 000 1.708zm-8.537 0a.853.853 0 100-1.707.853.853 0 000 1.707zm-8.538 0a.854.854 0 100-1.707.854.854 0 000 1.707zm-8.538 0a.854.854 0 100-1.707.854.854 0 000 1.707zm-8.537 0a.854.854 0 100-1.707.854.854 0 000 1.707zm-8.538 0a.854.854 0 100-1.707.854.854 0 000 1.707zm-8.537 0a.854.854 0 100-1.707.854.854 0 000 1.707zm-8.537 0a.854.854 0 100-1.707.854.854 0 000 1.707zm-8.538 0a.854.854 0 100-1.707.854.854 0 000 1.707zm68.3-8.534a.854.854 0 100-1.708.854.854 0 000 1.708zm-8.537 0a.853.853 0 100-1.706.853.853 0 000 1.706zm-8.538 0a.853.853 0 100-1.707.853.853 0 000 1.707zm-8.538 0a.853.853 0 10.001-1.707.853.853 0 000 1.707zm-8.537 0a.853.853 0 100-1.707.853.853 0 000 1.707zm-8.538 0a.853.853 0 10.001-1.707.853.853 0 000 1.707zm-8.537 0a.853.853 0 100-1.707.853.853 0 000 1.707zm-8.537 0a.853.853 0 100-1.707.853.853 0 000 1.707zm-8.538 0a.853.853 0 100-1.707.853.853 0 000 1.707zm68.3 34.134a.854.854 0 100-1.706.854.854 0 000 1.706zm-8.537 0a.854.854 0 10-.002-1.708.854.854 0 00.002 1.708zm-8.538 0a.854.854 0 10-.001-1.709.854.854 0 00.001 1.709zm-8.538 0a.854.854 0 100-1.709.854.854 0 000 1.709zm119.525-51.2a.854.854 0 100-1.707.854.854 0 000 1.707zm-8.537 0a.854.854 0 100-1.707.854.854 0 000 1.707zm-8.538 0a.854.854 0 100-1.707.854.854 0 000 1.707zm-8.537 0a.854.854 0 100-1.708.854.854 0 000 1.708zm-8.538 0a.854.854 0 100-1.707.854.854 0 000 1.707zm-8.537 0a.854.854 0 100-1.708.854.854 0 000 1.708zm-8.537 0a.853.853 0 100-1.707.853.853 0 000 1.707zm-8.538 0a.854.854 0 100-1.707.854.854 0 000 1.707zm-8.538 0a.854.854 0 100-1.707.854.854 0 000 1.707zm-8.537 0a.854.854 0 100-1.708.854.854 0 000 1.708zm-8.538 0a.854.854 0 100-1.707.854.854 0 000 1.707zm85.375-8.534a.853.853 0 10.001-1.707.853.853 0 00-.001 1.707zm-8.537 0a.853.853 0 10.001-1.707.853.853 0 00-.001 1.707zm-8.538 0a.853.853 0 10.001-1.707.853.853 0 00-.001 1.707zm-8.537 0a.854.854 0 100-1.708.854.854 0 000 1.708zm-8.538 0a.853.853 0 10.001-1.707.853.853 0 00-.001 1.707zm-8.537 0a.854.854 0 100-1.708.854.854 0 000 1.708zm-8.537 0a.853.853 0 100-1.706.853.853 0 000 1.706zm-8.538 0a.853.853 0 10.001-1.707.853.853 0 00-.001 1.707zm-8.538 0a.853.853 0 10.001-1.707.853.853 0 00-.001 1.707zm-8.537 0a.854.854 0 100-1.708.854.854 0 000 1.708zm-8.538 0a.853.853 0 10.001-1.707.853.853 0 00-.001 1.707zm85.375-8.533a.853.853 0 10.001-1.707.853.853 0 00-.001 1.707zm-8.537 0a.853.853 0 10.001-1.707.853.853 0 00-.001 1.707zm-8.538 0a.853.853 0 10.001-1.707.853.853 0 00-.001 1.707zm-8.537 0a.854.854 0 100-1.708.854.854 0 000 1.708zm-8.538 0a.853.853 0 10.001-1.707.853.853 0 00-.001 1.707zm-8.537 0a.854.854 0 100-1.708.854.854 0 000 1.708zm-8.537 0a.853.853 0 100-1.706.853.853 0 000 1.706zm-8.538 0a.853.853 0 10.001-1.707.853.853 0 00-.001 1.707zm-8.538 0a.853.853 0 10.001-1.707.853.853 0 00-.001 1.707zm-8.537 0a.854.854 0 100-1.708.854.854 0 000 1.708zm-8.538 0a.853.853 0 10.001-1.707.853.853 0 00-.001 1.707zm85.375-8.534a.853.853 0 10.001-1.707.853.853 0 00-.001 1.707zm-8.537 0a.853.853 0 10.001-1.707.853.853 0 00-.001 1.707zm-8.538 0a.853.853 0 10.001-1.707.853.853 0 00-.001 1.707zm-8.537 0a.854.854 0 100-1.708.854.854 0 000 1.708zm-8.538 0a.853.853 0 10.001-1.707.853.853 0 00-.001 1.707zm-8.537 0a.854.854 0 100-1.708.854.854 0 000 1.708zm-8.537 0a.853.853 0 100-1.706.853.853 0 000 1.706zm-8.538 0a.853.853 0 10.001-1.707.853.853 0 00-.001 1.707zm-8.538 0a.853.853 0 10.001-1.707.853.853 0 00-.001 1.707zm-8.537 0a.854.854 0 100-1.708.854.854 0 000 1.708zm-8.538 0a.853.853 0 10.001-1.707.853.853 0 00-.001 1.707zm85.375-8.533a.853.853 0 10.001-1.707.853.853 0 00-.001 1.707zm-8.537 0a.853.853 0 10.001-1.707.853.853 0 00-.001 1.707zm-8.538 0a.853.853 0 10.001-1.707.853.853 0 00-.001 1.707zm-8.537 0a.854.854 0 100-1.708.854.854 0 000 1.708zm-8.538 0a.853.853 0 10.001-1.707.853.853 0 00-.001 1.707zm-8.537 0a.854.854 0 100-1.708.854.854 0 000 1.708zm-8.537 0a.853.853 0 100-1.706.853.853 0 000 1.706zm-8.538 0a.853.853 0 10.001-1.707.853.853 0 00-.001 1.707zm-8.538 0a.853.853 0 10.001-1.707.853.853 0 00-.001 1.707zm-8.537 0a.854.854 0 100-1.708.854.854 0 000 1.708zm-8.538 0a.853.853 0 10.001-1.707.853.853 0 00-.001 1.707zm76.838 42.667a.853.853 0 10.001-1.707.853.853 0 00-.001 1.707zm-8.538 0a.853.853 0 10.001-1.707.853.853 0 00-.001 1.707zm-8.537 0a.854.854 0 100-1.708.854.854 0 000 1.708zm-8.538 0a.853.853 0 10.001-1.707.853.853 0 00-.001 1.707zm-8.537 0a.854.854 0 100-1.708.854.854 0 000 1.708zm-8.537 0a.853.853 0 100-1.706.853.853 0 000 1.706zm-8.538 0a.853.853 0 10.001-1.707.853.853 0 00-.001 1.707zm-8.538 0a.853.853 0 10.001-1.707.853.853 0 00-.001 1.707zm-8.537 0a.854.854 0 100-1.708.854.854 0 000 1.708zm-8.538 0a.853.853 0 10.001-1.707.853.853 0 00-.001 1.707zm85.375-59.733a.853.853 0 10.001-1.707.853.853 0 00-.001 1.707zm-8.537 0a.853.853 0 10.001-1.707.853.853 0 00-.001 1.707zm-8.538 0a.853.853 0 10.001-1.707.853.853 0 00-.001 1.707zm-8.537 0a.854.854 0 100-1.708.854.854 0 000 1.708zm-8.538 0a.853.853 0 10.001-1.707.853.853 0 00-.001 1.707zm-8.537 0a.854.854 0 100-1.708.854.854 0 000 1.708zm-8.537 0a.853.853 0 100-1.707.853.853 0 000 1.707zm-8.538 0a.853.853 0 10.001-1.707.853.853 0 00-.001 1.707zm-8.538 0a.853.853 0 10.001-1.707.853.853 0 00-.001 1.707zm-8.537 0a.854.854 0 100-1.708.854.854 0 000 1.708zm-8.538 0a.853.853 0 10.001-1.707.853.853 0 00-.001 1.707zm42.688-8.534a.854.854 0 100-1.708.854.854 0 000 1.708zm-8.537 0a.853.853 0 100-1.706.853.853 0 000 1.706zm-8.538 0a.853.853 0 10.001-1.707.853.853 0 00-.001 1.707zm-8.538 0a.853.853 0 10.001-1.707.853.853 0 00-.001 1.707zm-8.537 0a.854.854 0 100-1.708.854.854 0 000 1.708zm-8.538 0a.853.853 0 10.001-1.707.853.853 0 00-.001 1.707zm42.688-8.533a.854.854 0 100-1.708.854.854 0 000 1.708zm-8.537 0a.853.853 0 100-1.706.853.853 0 000 1.706zm-8.538 0a.853.853 0 10.001-1.707.853.853 0 00-.001 1.707zm-8.538 0a.853.853 0 10.001-1.707.853.853 0 00-.001 1.707zm-8.537 0a.854.854 0 100-1.708.854.854 0 000 1.708zm-8.538 0a.853.853 0 10.001-1.707.853.853 0 00-.001 1.707zm42.688-8.533a.854.854 0 100-1.709.854.854 0 000 1.709zm-8.537 0a.853.853 0 100-1.707.853.853 0 000 1.707zm-8.538 0a.853.853 0 10.001-1.707.853.853 0 00-.001 1.707zm-8.538 0a.853.853 0 10.001-1.707.853.853 0 00-.001 1.707zm-8.537 0a.854.854 0 100-1.709.854.854 0 000 1.709zm-8.538 0a.853.853 0 10.001-1.707.853.853 0 00-.001 1.707zm42.688-8.534a.854.854 0 100-1.708.854.854 0 000 1.708zm-8.537 0a.853.853 0 100-1.706.853.853 0 000 1.706zm-8.538 0a.853.853 0 10.001-1.706.853.853 0 00-.001 1.706zm-8.538 0a.853.853 0 10.001-1.706.853.853 0 00-.001 1.706zm-8.537 0a.854.854 0 100-1.708.854.854 0 000 1.708zm-8.538 0a.853.853 0 10.001-1.706.853.853 0 00-.001 1.706zm85.375 42.667a.853.853 0 10.001-1.707.853.853 0 00-.001 1.707zm-8.537 0a.853.853 0 10.001-1.707.853.853 0 00-.001 1.707zm-8.538 0a.853.853 0 10.001-1.707.853.853 0 00-.001 1.707zm-8.537 0a.854.854 0 100-1.708.854.854 0 000 1.708zm-8.538 0a.853.853 0 10.001-1.707.853.853 0 00-.001 1.707zm-8.537 0a.854.854 0 100-1.708.854.854 0 000 1.708zm-8.537 0a.853.853 0 100-1.707.853.853 0 000 1.707zm-8.538 0a.853.853 0 10.001-1.707.853.853 0 00-.001 1.707zm-8.538 0a.853.853 0 10.001-1.707.853.853 0 00-.001 1.707zm-8.537 0a.854.854 0 100-1.708.854.854 0 000 1.708zm-8.538 0a.853.853 0 10.001-1.707.853.853 0 00-.001 1.707zm-8.537 42.667a.854.854 0 100-1.708.854.854 0 000 1.708zm-8.537 0a.853.853 0 100-1.707.853.853 0 000 1.707zm-8.538 0a.854.854 0 100-1.707.854.854 0 000 1.707zm-8.538 0a.854.854 0 100-1.707.854.854 0 000 1.707zm-8.537 0a.854.854 0 100-1.707.854.854 0 000 1.707zm-8.538 0a.854.854 0 100-1.707.854.854 0 000 1.707zm-8.537 0a.854.854 0 100-1.707.854.854 0 000 1.707zm-8.537 0a.854.854 0 100-1.707.854.854 0 000 1.707zm-8.538 0a.854.854 0 100-1.707.854.854 0 000 1.707zm-8.538 0a.854.854 0 100-1.707.854.854 0 000 1.707zm-8.537 0a.854.854 0 100-1.707.854.854 0 000 1.707zm-8.537 0a.854.854 0 100-1.707.854.854 0 000 1.707zm-8.538 0a.854.854 0 100-1.707.854.854 0 000 1.707zm-8.538 0a.854.854 0 100-1.707.854.854 0 000 1.707zm110.988-8.534a.854.854 0 100-1.708.854.854 0 000 1.708zm-8.537 0a.853.853 0 100-1.706.853.853 0 000 1.706zm-8.538 0a.853.853 0 100-1.707.853.853 0 000 1.707zm-8.538 0a.853.853 0 10.001-1.707.853.853 0 000 1.707zm-8.537 0a.853.853 0 100-1.707.853.853 0 000 1.707zm-8.538 0a.853.853 0 10.001-1.707.853.853 0 000 1.707zm-8.537 0a.853.853 0 100-1.707.853.853 0 000 1.707zm-8.537 0a.853.853 0 100-1.707.853.853 0 000 1.707zm-8.538 0a.853.853 0 100-1.707.853.853 0 000 1.707zm-8.538 0a.853.853 0 100-1.707.853.853 0 000 1.707zm-8.537 0a.853.853 0 100-1.707.853.853 0 000 1.707zm-8.537 0a.853.853 0 100-1.707.853.853 0 000 1.707zm-8.538 0a.853.853 0 100-1.707.853.853 0 000 1.707zm-8.538 0a.853.853 0 10.001-1.707.853.853 0 000 1.707zm110.988-8.533a.854.854 0 100-1.708.854.854 0 000 1.708zm-8.537 0a.853.853 0 100-1.706.853.853 0 000 1.706zm-8.538 0a.853.853 0 100-1.707.853.853 0 000 1.707zm-8.538 0a.853.853 0 10.001-1.707.853.853 0 000 1.707zm-8.537 0a.853.853 0 100-1.707.853.853 0 000 1.707zm-8.538 0a.853.853 0 10.001-1.707.853.853 0 000 1.707zm-8.537 0a.853.853 0 100-1.707.853.853 0 000 1.707zm-8.537 0a.853.853 0 100-1.707.853.853 0 000 1.707zm-8.538 0a.853.853 0 100-1.707.853.853 0 000 1.707zm-8.538 0a.853.853 0 100-1.707.853.853 0 000 1.707zm-8.537 0a.853.853 0 100-1.707.853.853 0 000 1.707zm-8.537 0a.853.853 0 100-1.707.853.853 0 000 1.707zm-8.538 0a.853.853 0 100-1.707.853.853 0 000 1.707zm-8.538 0a.853.853 0 10.001-1.707.853.853 0 000 1.707zm110.988-8.534a.854.854 0 100-1.708.854.854 0 000 1.708zm-8.537 0a.853.853 0 100-1.706.853.853 0 000 1.706zm-8.538 0a.853.853 0 100-1.707.853.853 0 000 1.707zm-8.538 0a.853.853 0 10.001-1.707.853.853 0 000 1.707zm-8.537 0a.853.853 0 100-1.707.853.853 0 000 1.707zm-8.538 0a.853.853 0 10.001-1.707.853.853 0 000 1.707zm-8.537 0a.853.853 0 100-1.707.853.853 0 000 1.707zm-8.537 0a.853.853 0 100-1.707.853.853 0 000 1.707zm-8.538 0a.853.853 0 100-1.707.853.853 0 000 1.707zm-8.538 0a.853.853 0 100-1.707.853.853 0 000 1.707zm-8.537 0a.853.853 0 100-1.707.853.853 0 000 1.707zm-8.537 0a.853.853 0 100-1.707.853.853 0 000 1.707zm-8.538 0a.853.853 0 100-1.707.853.853 0 000 1.707zm-8.538 0a.853.853 0 10.001-1.707.853.853 0 000 1.707zm110.988-8.533a.854.854 0 100-1.708.854.854 0 000 1.708zm-8.537 0a.853.853 0 100-1.706.853.853 0 000 1.706zm-8.538 0a.853.853 0 100-1.707.853.853 0 000 1.707zm-8.538 0a.853.853 0 10.001-1.707.853.853 0 000 1.707zm-8.537 0a.853.853 0 100-1.707.853.853 0 000 1.707zm-8.538 0a.853.853 0 100-1.707.853.853 0 000 1.707zm-8.537 0a.853.853 0 100-1.707.853.853 0 000 1.707zm-8.537 0a.853.853 0 100-1.707.853.853 0 000 1.707zm-8.538 0a.853.853 0 100-1.707.853.853 0 000 1.707zm-8.538 0a.853.853 0 100-1.707.853.853 0 000 1.707zm-8.537 0a.853.853 0 100-1.707.853.853 0 000 1.707zm-8.537 0a.853.853 0 100-1.707.853.853 0 000 1.707zm-8.538 0a.853.853 0 100-1.707.853.853 0 000 1.707zm-8.538 0a.854.854 0 100-1.707.854.854 0 000 1.707zm110.988 42.667a.854.854 0 100-1.708.854.854 0 000 1.708zm-8.537 0a.853.853 0 100-1.706.853.853 0 000 1.706zm-8.538 0a.853.853 0 100-1.707.853.853 0 000 1.707zm-8.538 0a.853.853 0 10.001-1.707.853.853 0 000 1.707zm-8.537 0a.853.853 0 100-1.707.853.853 0 000 1.707zm-8.538 0a.853.853 0 10.001-1.707.853.853 0 000 1.707zm-8.537 0a.853.853 0 100-1.707.853.853 0 000 1.707zm-8.537 0a.853.853 0 100-1.707.853.853 0 000 1.707zm-8.538 0a.853.853 0 100-1.707.853.853 0 000 1.707zm68.3-59.733a.854.854 0 100-1.708.854.854 0 000 1.708zm-8.537 0a.853.853 0 100-1.707.853.853 0 000 1.707zm-8.538 0a.853.853 0 100-1.707.853.853 0 000 1.707zm-8.538 0a.853.853 0 10.001-1.707.853.853 0 000 1.707zm-8.537 0a.853.853 0 100-1.707.853.853 0 000 1.707zm-8.538 0a.853.853 0 100-1.707.853.853 0 000 1.707zm-8.537 0a.853.853 0 100-1.707.853.853 0 000 1.707zm-8.537 0a.853.853 0 100-1.707.853.853 0 000 1.707zm-8.538 0a.853.853 0 100-1.707.853.853 0 000 1.707zm68.3-8.534a.854.854 0 100-1.708.854.854 0 000 1.708zm-8.537 0a.853.853 0 100-1.706.853.853 0 000 1.706zm-8.538 0a.853.853 0 100-1.707.853.853 0 000 1.707zm-8.538 0a.853.853 0 10.001-1.707.853.853 0 000 1.707zm-8.537 0a.853.853 0 100-1.707.853.853 0 000 1.707zm34.15-8.533a.854.854 0 100-1.708.854.854 0 000 1.708zm-8.537 0a.853.853 0 100-1.706.853.853 0 000 1.706zm-8.538 0a.853.853 0 100-1.707.853.853 0 000 1.707zm-8.538 0a.853.853 0 10.001-1.707.853.853 0 000 1.707zm-8.537 0a.853.853 0 100-1.707.853.853 0 000 1.707zm34.15-8.533a.854.854 0 100-1.709.854.854 0 000 1.709zm-8.537 0a.853.853 0 100-1.707.853.853 0 000 1.707zm-8.538 0a.854.854 0 100-1.708.854.854 0 000 1.708zm-8.538 0a.854.854 0 100-1.708.854.854 0 000 1.708zm-8.537 0a.854.854 0 100-1.708.854.854 0 000 1.708zm34.15-8.534a.854.854 0 100-1.708.854.854 0 000 1.708zm-8.537 0a.853.853 0 100-1.706.853.853 0 000 1.706zm-8.538 0a.853.853 0 100-1.707.853.853 0 000 1.707zm-8.538 0a.853.853 0 10.001-1.707.853.853 0 000 1.707zm-8.537 0a.853.853 0 100-1.707.853.853 0 000 1.707zm34.15 42.667a.854.854 0 100-1.708.854.854 0 000 1.708zm-8.537 0a.853.853 0 100-1.707.853.853 0 000 1.707zm-8.538 0a.854.854 0 100-1.707.854.854 0 000 1.707zm-8.538 0a.854.854 0 100-1.707.854.854 0 000 1.707zm-8.537 0a.854.854 0 100-1.707.854.854 0 000 1.707zm-8.538 0a.854.854 0 100-1.707.854.854 0 000 1.707zm-8.537 0a.854.854 0 100-1.707.854.854 0 000 1.707zm-8.537 0a.854.854 0 100-1.707.854.854 0 000 1.707zm-8.538 0a.854.854 0 100-1.707.854.854 0 000 1.707zm102.45-59.733a.853.853 0 10.001-1.707.853.853 0 00-.001 1.707zm-8.538 0a.853.853 0 10.001-1.707.853.853 0 00-.001 1.707zm-8.537 0a.854.854 0 100-1.708.854.854 0 000 1.708zm-8.538 0a.853.853 0 10.001-1.707.853.853 0 00-.001 1.707zm25.613-8.534a.853.853 0 10.001-1.707.853.853 0 00-.001 1.707zm-8.538 0a.853.853 0 10.001-1.707.853.853 0 00-.001 1.707zm-8.537 0a.854.854 0 100-1.708.854.854 0 000 1.708zm-8.538 0a.853.853 0 10.001-1.707.853.853 0 00-.001 1.707zm25.613-8.533a.853.853 0 10.001-1.707.853.853 0 00-.001 1.707zm-8.538 0a.853.853 0 10.001-1.707.853.853 0 00-.001 1.707zm-8.537 0a.854.854 0 100-1.708.854.854 0 000 1.708zm-8.538 0a.853.853 0 10.001-1.707.853.853 0 00-.001 1.707zm25.613-8.533a.853.853 0 10.001-1.707.853.853 0 00-.001 1.707zm-8.538 0a.853.853 0 10.001-1.707.853.853 0 00-.001 1.707zm-8.537 0a.854.854 0 100-1.709.854.854 0 000 1.709zm-8.538 0a.853.853 0 10.001-1.707.853.853 0 00-.001 1.707zm25.613 34.133a.853.853 0 10.001-1.707.853.853 0 00-.001 1.707zm-8.538 0a.853.853 0 10.001-1.707.853.853 0 00-.001 1.707zm-8.537 0a.854.854 0 100-1.708.854.854 0 000 1.708zm-8.538 0a.853.853 0 10.001-1.707.853.853 0 00-.001 1.707zm-8.537-8.533a.854.854 0 100-1.708.854.854 0 000 1.708zm-8.537 0a.853.853 0 100-1.707.853.853 0 000 1.707zm-8.538 0a.853.853 0 100-1.707.853.853 0 000 1.707zm17.075-8.534a.854.854 0 100-1.708.854.854 0 000 1.708zm-8.537 0a.853.853 0 100-1.706.853.853 0 000 1.706zm-8.538 0a.854.854 0 100-1.707.854.854 0 000 1.707zm17.075-8.533a.854.854 0 100-1.708.854.854 0 000 1.708zm-8.537 0a.853.853 0 100-1.706.853.853 0 000 1.706zm-8.538 0a.853.853 0 100-1.707.853.853 0 000 1.707zm17.075-8.533a.854.854 0 100-1.709.854.854 0 000 1.709zm-8.537 0a.853.853 0 100-1.707.853.853 0 000 1.707zm-8.538 0a.854.854 0 100-1.707.854.854 0 000 1.707zm17.075 34.133a.854.854 0 100-1.708.854.854 0 000 1.708zm-8.537 0a.853.853 0 100-1.707.853.853 0 000 1.707zm-8.538 0a.854.854 0 100-1.707.854.854 0 000 1.707zm145.138 93.867a.853.853 0 100-1.707.853.853 0 000 1.707zm-8.538 0a.854.854 0 100-1.708.854.854 0 000 1.708zm-8.538 0a.854.854 0 100-1.707.854.854 0 000 1.707zm-8.537 0a.854.854 0 100-1.708.854.854 0 000 1.708zm25.613-8.534a.853.853 0 100-1.706.853.853 0 000 1.706zm-8.538 0a.854.854 0 100-1.708.854.854 0 000 1.708zm-8.538 0a.853.853 0 10.001-1.707.853.853 0 00-.001 1.707zm-8.537 0a.854.854 0 100-1.708.854.854 0 000 1.708zm25.613-8.533a.853.853 0 100-1.706.853.853 0 000 1.706zm-8.538 0a.854.854 0 100-1.708.854.854 0 000 1.708zm-8.538 0a.853.853 0 10.001-1.707.853.853 0 00-.001 1.707zm-8.537 0a.854.854 0 100-1.708.854.854 0 000 1.708zm25.613-8.534a.853.853 0 100-1.706.853.853 0 000 1.706zm-8.538 0a.854.854 0 100-1.708.854.854 0 000 1.708zm-8.538 0a.853.853 0 10.001-1.707.853.853 0 00-.001 1.707zm-8.537 0a.854.854 0 100-1.708.854.854 0 000 1.708zm25.613-8.533a.853.853 0 100-1.706.853.853 0 000 1.706zm-8.538 0a.854.854 0 100-1.708.854.854 0 000 1.708zm-8.538 0a.853.853 0 10.001-1.707.853.853 0 00-.001 1.707zm-8.537 0a.854.854 0 100-1.708.854.854 0 000 1.708z" fill="#00C8FF"/></svg>