<svg width="191" height="191" fill="none" xmlns="http://www.w3.org/2000/svg"><path d="M189.44 181.499a.854.854 0 100-1.708.854.854 0 000 1.708zm-8.538 0a.854.854 0 100-1.707.854.854 0 000 1.707zm-8.537 0a.854.854 0 100-1.707.854.854 0 000 1.707zm-8.538 0a.854.854 0 100-1.707.854.854 0 000 1.707zm-8.537 0a.854.854 0 100-1.708.854.854 0 000 1.708zm-8.538 0a.854.854 0 100-1.707.854.854 0 000 1.707zm-8.537 0a.854.854 0 100-1.708.854.854 0 000 1.708zm-8.538 0a.854.854 0 100-1.707.854.854 0 000 1.707zm-8.537 0a.854.854 0 100-1.708.854.854 0 000 1.708zm-8.538 0a.854.854 0 100-1.707.854.854 0 000 1.707zm-8.537 0a.854.854 0 100-1.707.854.854 0 000 1.707zm85.375-8.534a.854.854 0 100-1.708.854.854 0 000 1.708zm-8.538 0a.853.853 0 10.001-1.707.853.853 0 00-.001 1.707zm-8.537 0a.853.853 0 10.001-1.707.853.853 0 00-.001 1.707zm-8.538 0a.853.853 0 10.001-1.707.853.853 0 00-.001 1.707zm-8.537 0a.854.854 0 100-1.708.854.854 0 000 1.708zm-8.538 0a.853.853 0 10.001-1.707.853.853 0 00-.001 1.707zm-8.537 0a.854.854 0 100-1.708.854.854 0 000 1.708zm-8.538 0a.853.853 0 10.001-1.707.853.853 0 00-.001 1.707zm-8.537 0a.854.854 0 100-1.708.854.854 0 000 1.708zm-8.538 0a.853.853 0 10.001-1.707.853.853 0 00-.001 1.707zm-8.537 0a.853.853 0 10.001-1.707.853.853 0 00-.001 1.707zm85.375-8.533a.854.854 0 100-1.708.854.854 0 000 1.708zm-8.538 0a.853.853 0 10.001-1.707.853.853 0 00-.001 1.707zm-8.537 0a.853.853 0 10.001-1.707.853.853 0 00-.001 1.707zm-8.538 0a.853.853 0 10.001-1.707.853.853 0 00-.001 1.707zm-8.537 0a.854.854 0 100-1.708.854.854 0 000 1.708zm-8.538 0a.853.853 0 10.001-1.707.853.853 0 00-.001 1.707zm-8.537 0a.854.854 0 100-1.708.854.854 0 000 1.708zm-8.538 0a.853.853 0 10.001-1.707.853.853 0 00-.001 1.707zm-8.537 0a.854.854 0 100-1.708.854.854 0 000 1.708zm-8.538 0a.853.853 0 10.001-1.707.853.853 0 00-.001 1.707zm-8.537 0a.853.853 0 10.001-1.707.853.853 0 00-.001 1.707zm85.375-8.533a.854.854 0 100-1.708.854.854 0 000 1.708zm-8.538 0a.854.854 0 100-1.707.854.854 0 000 1.707zm-8.537 0a.854.854 0 100-1.707.854.854 0 000 1.707zm-8.538 0a.854.854 0 100-1.707.854.854 0 000 1.707zm-8.537 0a.854.854 0 100-1.708.854.854 0 000 1.708zm-8.538 0a.854.854 0 100-1.707.854.854 0 000 1.707zm-8.537 0a.854.854 0 100-1.708.854.854 0 000 1.708zm-8.538 0a.854.854 0 100-1.707.854.854 0 000 1.707zm-8.537 0a.854.854 0 100-1.708.854.854 0 000 1.708zm-8.538 0a.854.854 0 100-1.707.854.854 0 000 1.707zm-8.537 0a.854.854 0 100-1.707.854.854 0 000 1.707zm85.375-8.534a.854.854 0 100-1.708.854.854 0 000 1.708zm-8.538 0a.853.853 0 10.001-1.707.853.853 0 00-.001 1.707zm-8.537 0a.853.853 0 10.001-1.707.853.853 0 00-.001 1.707zm-8.538 0a.853.853 0 10.001-1.707.853.853 0 00-.001 1.707zm-8.537 0a.854.854 0 100-1.708.854.854 0 000 1.708zm-8.538 0a.853.853 0 10.001-1.707.853.853 0 00-.001 1.707zm-8.537 0a.854.854 0 100-1.708.854.854 0 000 1.708zm-8.538 0a.853.853 0 10.001-1.707.853.853 0 00-.001 1.707zm-8.537 0a.854.854 0 100-1.708.854.854 0 000 1.708zm-8.538 0a.853.853 0 10.001-1.707.853.853 0 00-.001 1.707zm-8.537 0a.853.853 0 10.001-1.707.853.853 0 00-.001 1.707zm85.375 42.667a.854.854 0 100-1.708.854.854 0 000 1.708zm-8.538 0a.853.853 0 10.001-1.707.853.853 0 00-.001 1.707zm-8.537 0a.853.853 0 10.001-1.707.853.853 0 00-.001 1.707zm-8.538 0a.853.853 0 10.001-1.707.853.853 0 00-.001 1.707zm-8.537 0a.854.854 0 100-1.708.854.854 0 000 1.708zm-8.538 0a.853.853 0 10.001-1.707.853.853 0 00-.001 1.707zm-8.537 0a.854.854 0 100-1.708.854.854 0 000 1.708zm-8.538 0a.853.853 0 10.001-1.707.853.853 0 00-.001 1.707zm-8.537 0a.854.854 0 100-1.708.854.854 0 000 1.708zm-8.538 0a.853.853 0 10.001-1.707.853.853 0 00-.001 1.707zm-8.537 0a.853.853 0 10.001-1.707.853.853 0 00-.001 1.707zm85.375-59.733a.854.854 0 100-1.708.854.854 0 000 1.708zm-8.538 0a.854.854 0 100-1.707.854.854 0 000 1.707zm-8.537 0a.854.854 0 100-1.707.854.854 0 000 1.707zm-8.538 0a.854.854 0 100-1.707.854.854 0 000 1.707zm-8.537 0a.854.854 0 100-1.708.854.854 0 000 1.708zm-8.538 0a.854.854 0 100-1.707.854.854 0 000 1.707zm-8.537 0a.854.854 0 100-1.708.854.854 0 000 1.708zm-8.538 0a.854.854 0 100-1.707.854.854 0 000 1.707zm-8.537 0a.854.854 0 100-1.708.854.854 0 000 1.708zm-8.538 0a.854.854 0 100-1.707.854.854 0 000 1.707zm-8.537 0a.854.854 0 100-1.707.854.854 0 000 1.707zm85.375-8.534a.854.854 0 100-1.708.854.854 0 000 1.708zm-8.538 0a.853.853 0 10.001-1.707.853.853 0 00-.001 1.707zm-8.537 0a.853.853 0 10.001-1.707.853.853 0 00-.001 1.707zm-8.538 0a.853.853 0 10.001-1.707.853.853 0 00-.001 1.707zm-8.537 0a.854.854 0 100-1.708.854.854 0 000 1.708zm-8.538 0a.853.853 0 10.001-1.707.853.853 0 00-.001 1.707zm-8.537 0a.854.854 0 100-1.708.854.854 0 000 1.708zm-8.538 0a.853.853 0 10.001-1.707.853.853 0 00-.001 1.707zm-8.537 0a.854.854 0 100-1.708.854.854 0 000 1.708zm-8.538 0a.853.853 0 10.001-1.707.853.853 0 00-.001 1.707zm-8.537 0a.853.853 0 10.001-1.707.853.853 0 00-.001 1.707zm85.375-8.533a.854.854 0 100-1.708.854.854 0 000 1.708zm-8.538 0a.853.853 0 10.001-1.707.853.853 0 00-.001 1.707zm-8.537 0a.853.853 0 10.001-1.707.853.853 0 00-.001 1.707zm-8.538 0a.853.853 0 10.001-1.707.853.853 0 00-.001 1.707zm-8.537 0a.854.854 0 100-1.708.854.854 0 000 1.708zm-8.538 0a.853.853 0 10.001-1.707.853.853 0 00-.001 1.707zm-8.537 0a.854.854 0 100-1.708.854.854 0 000 1.708zm-8.538 0a.853.853 0 10.001-1.707.853.853 0 00-.001 1.707zm-8.537 0a.854.854 0 100-1.708.854.854 0 000 1.708zm-8.538 0a.853.853 0 10.001-1.707.853.853 0 00-.001 1.707zm-8.537 0a.853.853 0 10.001-1.707.853.853 0 00-.001 1.707zm85.375-8.533a.854.854 0 100-1.708.854.854 0 000 1.708zm-8.538 0a.854.854 0 100-1.707.854.854 0 000 1.707zm-8.537 0a.854.854 0 100-1.707.854.854 0 000 1.707zm-8.538 0a.854.854 0 100-1.707.854.854 0 000 1.707zm-8.537 0a.854.854 0 100-1.708.854.854 0 000 1.708zm-8.538 0a.854.854 0 100-1.707.854.854 0 000 1.707zm-8.537 0a.854.854 0 100-1.708.854.854 0 000 1.708zm-8.538 0a.854.854 0 100-1.707.854.854 0 000 1.707zm-8.537 0a.854.854 0 100-1.708.854.854 0 000 1.708zm-8.538 0a.854.854 0 100-1.707.854.854 0 000 1.707zm-8.537 0a.854.854 0 100-1.707.854.854 0 000 1.707zm85.375-8.534a.854.854 0 100-1.708.854.854 0 000 1.708zm-8.538 0a.853.853 0 10.001-1.706.853.853 0 00-.001 1.706zm-8.537 0a.853.853 0 10.001-1.706.853.853 0 00-.001 1.706zm-8.538 0a.853.853 0 10.001-1.706.853.853 0 00-.001 1.706zm-8.537 0a.854.854 0 100-1.708.854.854 0 000 1.708zm-8.538 0a.853.853 0 10.001-1.706.853.853 0 00-.001 1.706zm-8.537 0a.854.854 0 100-1.708.854.854 0 000 1.708zm-8.538 0a.853.853 0 10.001-1.706.853.853 0 00-.001 1.706zm-8.537 0a.854.854 0 100-1.708.854.854 0 000 1.708zm-8.538 0a.853.853 0 10.001-1.706.853.853 0 00-.001 1.706zm-8.537 0a.853.853 0 10.001-1.706.853.853 0 00-.001 1.706zm85.375 42.667a.854.854 0 100-1.708.854.854 0 000 1.708zm-8.538 0a.853.853 0 10.001-1.707.853.853 0 00-.001 1.707zm-8.537 0a.853.853 0 10.001-1.707.853.853 0 00-.001 1.707zm-8.538 0a.853.853 0 10.001-1.707.853.853 0 00-.001 1.707zm-8.537 0a.854.854 0 100-1.708.854.854 0 000 1.708zm-8.538 0a.853.853 0 10.001-1.707.853.853 0 00-.001 1.707zm-8.537 0a.854.854 0 100-1.708.854.854 0 000 1.708zm-8.538 0a.853.853 0 10.001-1.707.853.853 0 00-.001 1.707zm-8.537 0a.854.854 0 100-1.708.854.854 0 000 1.708zm-8.538 0a.853.853 0 10.001-1.707.853.853 0 00-.001 1.707zm-8.537 0a.853.853 0 10.001-1.707.853.853 0 00-.001 1.707zm-8.537 42.667a.854.854 0 100-1.707.854.854 0 000 1.707zm-8.538 0a.854.854 0 100-1.707.854.854 0 000 1.707zm-8.538 0a.854.854 0 100-1.707.854.854 0 000 1.707zm-8.537 0a.854.854 0 100-1.707.854.854 0 000 1.707zm-8.537 0a.854.854 0 100-1.707.854.854 0 000 1.707zm-8.538 0a.854.854 0 100-1.707.854.854 0 000 1.707zm-8.537 0a.854.854 0 100-1.707.854.854 0 000 1.707zm-8.538 0a.854.854 0 100-1.707.854.854 0 000 1.707zm-8.538 0a.854.854 0 100-1.707.854.854 0 000 1.707zm-8.537 0a.854.854 0 100-1.707.854.854 0 000 1.707zm-8.537 0a.854.854 0 100-1.707.854.854 0 000 1.707zm-8.538 0a.854.854 0 100-1.707.854.854 0 000 1.707zm93.913-8.534a.853.853 0 100-1.707.853.853 0 000 1.707zm-8.538 0a.853.853 0 100-1.707.853.853 0 000 1.707zm-8.538 0a.853.853 0 10.001-1.707.853.853 0 000 1.707zm-8.537 0a.853.853 0 100-1.707.853.853 0 000 1.707zm-8.537 0a.853.853 0 100-1.707.853.853 0 000 1.707zm-8.538 0a.853.853 0 100-1.707.853.853 0 000 1.707zm-8.537 0a.853.853 0 100-1.707.853.853 0 000 1.707zm-8.538 0a.853.853 0 100-1.707.853.853 0 000 1.707zm-8.538 0a.853.853 0 100-1.707.853.853 0 000 1.707zm-8.537 0a.853.853 0 100-1.707.853.853 0 000 1.707zm-8.537 0a.853.853 0 100-1.707.853.853 0 000 1.707zm-8.538 0a.853.853 0 100-1.707.853.853 0 000 1.707zm93.913-8.533a.853.853 0 100-1.707.853.853 0 000 1.707zm-8.538 0a.853.853 0 100-1.707.853.853 0 000 1.707zm-8.538 0a.853.853 0 10.001-1.707.853.853 0 000 1.707zm-8.537 0a.853.853 0 100-1.707.853.853 0 000 1.707zm-8.537 0a.853.853 0 100-1.707.853.853 0 000 1.707zm-8.538 0a.853.853 0 100-1.707.853.853 0 000 1.707zm-8.537 0a.853.853 0 100-1.707.853.853 0 000 1.707zm-8.538 0a.853.853 0 100-1.707.853.853 0 000 1.707zm-8.538 0a.853.853 0 100-1.707.853.853 0 000 1.707zm-8.537 0a.853.853 0 100-1.707.853.853 0 000 1.707zm-8.537 0a.853.853 0 100-1.707.853.853 0 000 1.707zm-8.538 0a.853.853 0 100-1.707.853.853 0 000 1.707zm93.913-8.533a.854.854 0 100-1.707.854.854 0 000 1.707zm-8.538 0a.854.854 0 100-1.707.854.854 0 000 1.707zm-8.538 0a.854.854 0 100-1.707.854.854 0 000 1.707zm-8.537 0a.854.854 0 100-1.707.854.854 0 000 1.707zm-8.537 0a.854.854 0 100-1.707.854.854 0 000 1.707zm-8.538 0a.854.854 0 100-1.707.854.854 0 000 1.707zm-8.537 0a.854.854 0 100-1.707.854.854 0 000 1.707zm-8.538 0a.854.854 0 100-1.707.854.854 0 000 1.707zm-8.538 0a.854.854 0 100-1.707.854.854 0 000 1.707zm-8.537 0a.854.854 0 100-1.707.854.854 0 000 1.707zm-8.537 0a.854.854 0 100-1.707.854.854 0 000 1.707zm-8.538 0a.854.854 0 100-1.707.854.854 0 000 1.707zm93.913-8.534a.853.853 0 100-1.707.853.853 0 000 1.707zm-8.538 0a.853.853 0 100-1.707.853.853 0 000 1.707zm-8.538 0a.853.853 0 10.001-1.707.853.853 0 000 1.707zm-8.537 0a.853.853 0 100-1.707.853.853 0 000 1.707zm-8.537 0a.853.853 0 100-1.707.853.853 0 000 1.707zm-8.538 0a.853.853 0 100-1.707.853.853 0 000 1.707zm-8.537 0a.853.853 0 100-1.707.853.853 0 000 1.707zm-8.538 0a.853.853 0 100-1.707.853.853 0 000 1.707zm-8.538 0a.853.853 0 100-1.707.853.853 0 000 1.707zm-8.537 0a.853.853 0 100-1.707.853.853 0 000 1.707zm-8.537 0a.853.853 0 100-1.707.853.853 0 000 1.707zm-8.538 0a.853.853 0 100-1.707.853.853 0 000 1.707zm93.913 42.667a.853.853 0 100-1.707.853.853 0 000 1.707zm-8.538 0a.853.853 0 100-1.707.853.853 0 000 1.707zm-8.538 0a.853.853 0 10.001-1.707.853.853 0 000 1.707zm-8.537 0a.853.853 0 100-1.707.853.853 0 000 1.707zm-8.537 0a.853.853 0 100-1.707.853.853 0 000 1.707zm-8.538 0a.853.853 0 100-1.707.853.853 0 000 1.707zm-8.537 0a.853.853 0 100-1.707.853.853 0 000 1.707zm-8.538 0a.853.853 0 100-1.707.853.853 0 000 1.707zm-8.538 0a.853.853 0 100-1.707.853.853 0 000 1.707zm-8.537 0a.853.853 0 100-1.707.853.853 0 000 1.707zm-8.537 0a.853.853 0 100-1.707.853.853 0 000 1.707zm-8.538 0a.853.853 0 100-1.707.853.853 0 000 1.707zm93.913-59.733a.854.854 0 100-1.707.854.854 0 000 1.707zm-8.538 0a.854.854 0 100-1.707.854.854 0 000 1.707zm-8.538 0a.854.854 0 100-1.707.854.854 0 000 1.707zm-8.537 0a.854.854 0 100-1.707.854.854 0 000 1.707zm-8.537 0a.854.854 0 100-1.707.854.854 0 000 1.707zm-8.538 0a.854.854 0 100-1.707.854.854 0 000 1.707zm-8.537 0a.854.854 0 100-1.707.854.854 0 000 1.707zm-8.538 0a.854.854 0 100-1.707.854.854 0 000 1.707zm-8.538 0a.854.854 0 100-1.707.854.854 0 000 1.707zm-8.537 0a.854.854 0 100-1.707.854.854 0 000 1.707zm-8.537 0a.854.854 0 100-1.707.854.854 0 000 1.707zm-8.538 0a.854.854 0 100-1.707.854.854 0 000 1.707zm93.913-8.534a.853.853 0 100-1.707.853.853 0 000 1.707zm-8.538 0a.853.853 0 100-1.707.853.853 0 000 1.707zm-8.538 0a.853.853 0 10.001-1.707.853.853 0 000 1.707zm-8.537 0a.853.853 0 100-1.707.853.853 0 000 1.707zm-8.537 0a.853.853 0 100-1.707.853.853 0 000 1.707zm-8.538 0a.853.853 0 100-1.707.853.853 0 000 1.707zm-8.537 0a.853.853 0 100-1.707.853.853 0 000 1.707zm-8.538 0a.853.853 0 100-1.707.853.853 0 000 1.707zm-8.538 0a.853.853 0 100-1.707.853.853 0 000 1.707zm-8.537 0a.853.853 0 100-1.707.853.853 0 000 1.707zm-8.537 0a.853.853 0 100-1.707.853.853 0 000 1.707zm-8.538 0a.853.853 0 100-1.707.853.853 0 000 1.707zm93.913-8.533a.853.853 0 100-1.707.853.853 0 000 1.707zm-8.538 0a.853.853 0 100-1.707.853.853 0 000 1.707zm-8.538 0a.853.853 0 10.001-1.707.853.853 0 000 1.707zm-8.537 0a.853.853 0 100-1.707.853.853 0 000 1.707zm-8.537 0a.853.853 0 100-1.707.853.853 0 000 1.707zm-8.538 0a.853.853 0 100-1.707.853.853 0 000 1.707zm-8.537 0a.853.853 0 100-1.707.853.853 0 000 1.707zm-8.538 0a.853.853 0 100-1.707.853.853 0 000 1.707zm-8.538 0a.853.853 0 100-1.707.853.853 0 000 1.707zm-8.537 0a.853.853 0 100-1.707.853.853 0 000 1.707zm-8.537 0a.853.853 0 100-1.707.853.853 0 000 1.707zm-8.538 0a.853.853 0 100-1.707.853.853 0 000 1.707zm93.913-8.533a.854.854 0 100-1.707.854.854 0 000 1.707zm-8.538 0a.854.854 0 100-1.707.854.854 0 000 1.707zm-8.538 0a.854.854 0 100-1.707.854.854 0 000 1.707zm-8.537 0a.854.854 0 100-1.707.854.854 0 000 1.707zm-8.537 0a.854.854 0 100-1.707.854.854 0 000 1.707zm-8.538 0a.854.854 0 100-1.707.854.854 0 000 1.707zm-8.537 0a.854.854 0 100-1.707.854.854 0 000 1.707zm-8.538 0a.854.854 0 100-1.707.854.854 0 000 1.707zm-8.538 0a.854.854 0 100-1.707.854.854 0 000 1.707zm-8.537 0a.854.854 0 100-1.707.854.854 0 000 1.707zm-8.537 0a.854.854 0 100-1.707.854.854 0 000 1.707zm-8.538 0a.854.854 0 100-1.707.854.854 0 000 1.707zm93.913-8.534a.853.853 0 100-1.707.853.853 0 000 1.707zm-8.538 0a.854.854 0 100-1.707.854.854 0 000 1.707zm-8.538 0a.854.854 0 100-1.707.854.854 0 000 1.707zm-8.537 0a.854.854 0 100-1.707.854.854 0 000 1.707zm-8.537 0a.853.853 0 100-1.707.853.853 0 000 1.707zm-8.538 0a.854.854 0 100-1.707.854.854 0 000 1.707zm-8.537 0a.853.853 0 100-1.707.853.853 0 000 1.707zm-8.538 0a.854.854 0 100-1.707.854.854 0 000 1.707zm-8.538 0a.854.854 0 100-1.707.854.854 0 000 1.707zm-8.537 0a.853.853 0 100-1.707.853.853 0 000 1.707zm-8.537 0a.854.854 0 100-1.707.854.854 0 000 1.707zm-8.538 0a.853.853 0 100-1.707.853.853 0 000 1.707zm93.913 42.667a.853.853 0 100-1.707.853.853 0 000 1.707zm-8.538 0a.853.853 0 100-1.707.853.853 0 000 1.707zm-8.538 0a.853.853 0 10.001-1.707.853.853 0 000 1.707zm-8.537 0a.853.853 0 100-1.707.853.853 0 000 1.707zm-8.537 0a.853.853 0 100-1.707.853.853 0 000 1.707zm-8.538 0a.853.853 0 100-1.707.853.853 0 000 1.707zm-8.537 0a.853.853 0 100-1.707.853.853 0 000 1.707zm-8.538 0a.853.853 0 100-1.707.853.853 0 000 1.707zm-8.538 0a.853.853 0 100-1.707.853.853 0 000 1.707zm-8.537 0a.853.853 0 100-1.707.853.853 0 000 1.707zm-8.537 0a.853.853 0 100-1.707.853.853 0 000 1.707zm-8.538 0a.853.853 0 100-1.707.853.853 0 000 1.707zM189.44 79.099a.854.854 0 100-1.708.854.854 0 000 1.708zm-8.538 0a.853.853 0 10.001-1.707.853.853 0 00-.001 1.707zm-8.537 0a.853.853 0 10.001-1.707.853.853 0 00-.001 1.707zm-8.538 0a.853.853 0 10.001-1.707.853.853 0 00-.001 1.707zm-8.537 0a.854.854 0 100-1.708.854.854 0 000 1.708zm-8.538 0a.853.853 0 10.001-1.707.853.853 0 00-.001 1.707zm-8.537 0a.854.854 0 100-1.708.854.854 0 000 1.708zm-8.538 0a.853.853 0 10.001-1.707.853.853 0 00-.001 1.707zm-8.537 0a.854.854 0 100-1.708.854.854 0 000 1.708zm-8.538 0a.853.853 0 10.001-1.707.853.853 0 00-.001 1.707zm-8.537 0a.853.853 0 10.001-1.707.853.853 0 00-.001 1.707zm85.375-8.534a.854.854 0 100-1.708.854.854 0 000 1.708zm-8.538 0a.853.853 0 10.001-1.707.853.853 0 00-.001 1.707zm-8.537 0a.853.853 0 10.001-1.707.853.853 0 00-.001 1.707zm-8.538 0a.853.853 0 10.001-1.707.853.853 0 00-.001 1.707zm-8.537 0a.854.854 0 100-1.708.854.854 0 000 1.708zm-8.538 0a.853.853 0 10.001-1.707.853.853 0 00-.001 1.707zm-8.537 0a.854.854 0 100-1.708.854.854 0 000 1.708zm-8.538 0a.853.853 0 10.001-1.707.853.853 0 00-.001 1.707zm-8.537 0a.854.854 0 100-1.708.854.854 0 000 1.708zm-8.538 0a.853.853 0 10.001-1.707.853.853 0 00-.001 1.707zm-8.537 0a.853.853 0 10.001-1.707.853.853 0 00-.001 1.707zm85.375-8.533a.854.854 0 100-1.708.854.854 0 000 1.708zm-8.538 0a.853.853 0 10.001-1.707.853.853 0 00-.001 1.707zm-8.537 0a.853.853 0 10.001-1.707.853.853 0 00-.001 1.707zm-8.538 0a.853.853 0 10.001-1.707.853.853 0 00-.001 1.707zm-8.537 0a.854.854 0 100-1.708.854.854 0 000 1.708zm-8.538 0a.853.853 0 10.001-1.707.853.853 0 00-.001 1.707zm-8.537 0a.854.854 0 100-1.708.854.854 0 000 1.708zm-8.538 0a.853.853 0 10.001-1.707.853.853 0 00-.001 1.707zm-8.537 0a.854.854 0 100-1.708.854.854 0 000 1.708zm-8.538 0a.853.853 0 10.001-1.707.853.853 0 00-.001 1.707zm-8.537 0a.853.853 0 10.001-1.707.853.853 0 00-.001 1.707zm85.375-8.533a.854.854 0 100-1.709.854.854 0 000 1.709zm-8.538 0a.853.853 0 10.001-1.707.853.853 0 00-.001 1.707zm-8.537 0a.853.853 0 10.001-1.707.853.853 0 00-.001 1.707zm-8.538 0a.853.853 0 10.001-1.707.853.853 0 00-.001 1.707zm-8.537 0a.854.854 0 100-1.709.854.854 0 000 1.709zm-8.538 0a.853.853 0 10.001-1.707.853.853 0 00-.001 1.707zm-8.537 0a.854.854 0 100-1.709.854.854 0 000 1.709zm-8.538 0a.853.853 0 10.001-1.707.853.853 0 00-.001 1.707zm-8.537 0a.854.854 0 100-1.709.854.854 0 000 1.709zm-8.538 0a.853.853 0 10.001-1.707.853.853 0 00-.001 1.707zm-8.537 0a.853.853 0 10.001-1.707.853.853 0 00-.001 1.707zm85.375 34.133a.854.854 0 100-1.708.854.854 0 000 1.708zm-8.538 0a.853.853 0 10.001-1.707.853.853 0 00-.001 1.707zm-8.537 0a.853.853 0 10.001-1.707.853.853 0 00-.001 1.707zm-8.538 0a.853.853 0 10.001-1.707.853.853 0 00-.001 1.707zm-8.537 0a.854.854 0 100-1.708.854.854 0 000 1.708zm-8.538 0a.853.853 0 10.001-1.707.853.853 0 00-.001 1.707zm-8.537 0a.854.854 0 100-1.708.854.854 0 000 1.708zm-8.538 0a.853.853 0 10.001-1.707.853.853 0 00-.001 1.707zm-8.537 0a.854.854 0 100-1.708.854.854 0 000 1.708zm-8.538 0a.853.853 0 10.001-1.707.853.853 0 00-.001 1.707zm-8.537 0a.853.853 0 10.001-1.707.853.853 0 00-.001 1.707zm-8.537-8.533a.854.854 0 100-1.707.854.854 0 000 1.707zm-8.538 0a.854.854 0 100-1.707.854.854 0 000 1.707zm-8.538 0a.854.854 0 100-1.707.854.854 0 000 1.707zm-8.537 0a.854.854 0 100-1.707.854.854 0 000 1.707zm-8.537 0a.854.854 0 100-1.707.854.854 0 000 1.707zm-8.538 0a.854.854 0 100-1.707.854.854 0 000 1.707zm-8.537 0a.854.854 0 100-1.707.854.854 0 000 1.707zm-8.538 0a.854.854 0 100-1.707.854.854 0 000 1.707zm-8.538 0a.854.854 0 100-1.707.854.854 0 000 1.707zm-8.537 0a.854.854 0 100-1.707.854.854 0 000 1.707zm-8.537 0a.854.854 0 100-1.707.854.854 0 000 1.707zm-8.538 0a.854.854 0 100-1.707.854.854 0 000 1.707zm93.913-8.534a.854.854 0 100-1.707.854.854 0 000 1.707zm-8.538 0a.854.854 0 100-1.707.854.854 0 000 1.707zm-8.538 0a.854.854 0 100-1.707.854.854 0 000 1.707zm-8.537 0a.854.854 0 100-1.707.854.854 0 000 1.707zm-8.537 0a.854.854 0 100-1.707.854.854 0 000 1.707zm-8.538 0a.854.854 0 100-1.707.854.854 0 000 1.707zm-8.537 0a.854.854 0 100-1.707.854.854 0 000 1.707zm-8.538 0a.854.854 0 100-1.707.854.854 0 000 1.707zm-8.538 0a.854.854 0 100-1.707.854.854 0 000 1.707zm-8.537 0a.854.854 0 100-1.707.854.854 0 000 1.707zm-8.537 0a.854.854 0 100-1.707.854.854 0 000 1.707zm-8.538 0a.854.854 0 100-1.707.854.854 0 000 1.707zm93.913-8.533a.853.853 0 100-1.707.853.853 0 000 1.707zm-8.538 0a.854.854 0 100-1.707.854.854 0 000 1.707zm-8.538 0a.854.854 0 100-1.707.854.854 0 000 1.707zm-8.537 0a.854.854 0 100-1.707.854.854 0 000 1.707zm-8.537 0a.853.853 0 100-1.707.853.853 0 000 1.707zm-8.538 0a.854.854 0 100-1.707.854.854 0 000 1.707zm-8.537 0a.853.853 0 100-1.707.853.853 0 000 1.707zm-8.538 0a.854.854 0 100-1.707.854.854 0 000 1.707zm-8.538 0a.854.854 0 100-1.707.854.854 0 000 1.707zm-8.537 0a.853.853 0 100-1.707.853.853 0 000 1.707zm-8.537 0a.854.854 0 100-1.707.854.854 0 000 1.707zm-8.538 0a.853.853 0 100-1.707.853.853 0 000 1.707zm93.913-8.533a.854.854 0 100-1.707.854.854 0 000 1.707zm-8.538 0a.854.854 0 100-1.708.854.854 0 000 1.708zm-8.538 0a.854.854 0 100-1.708.854.854 0 000 1.708zm-8.537 0a.854.854 0 100-1.708.854.854 0 000 1.708zm-8.537 0a.854.854 0 100-1.707.854.854 0 000 1.707zm-8.538 0a.854.854 0 100-1.708.854.854 0 000 1.708zm-8.537 0a.854.854 0 100-1.707.854.854 0 000 1.707zm-8.538 0a.854.854 0 100-1.708.854.854 0 000 1.708zm-8.538 0a.854.854 0 100-1.708.854.854 0 000 1.708zm-8.537 0a.854.854 0 100-1.707.854.854 0 000 1.707zm-8.537 0a.854.854 0 100-1.708.854.854 0 000 1.708zm-8.538 0a.854.854 0 100-1.707.854.854 0 000 1.707zm93.913 34.133a.854.854 0 100-1.707.854.854 0 000 1.707zm-8.538 0a.854.854 0 100-1.707.854.854 0 000 1.707zm-8.538 0a.854.854 0 100-1.707.854.854 0 000 1.707zm-8.537 0a.854.854 0 100-1.707.854.854 0 000 1.707zm-8.537 0a.854.854 0 100-1.707.854.854 0 000 1.707zm-8.538 0a.854.854 0 100-1.707.854.854 0 000 1.707zm-8.537 0a.854.854 0 100-1.707.854.854 0 000 1.707zm-8.538 0a.854.854 0 100-1.707.854.854 0 000 1.707zm-8.538 0a.854.854 0 100-1.707.854.854 0 000 1.707zm-8.537 0a.854.854 0 100-1.707.854.854 0 000 1.707zm-8.537 0a.854.854 0 100-1.707.854.854 0 000 1.707zm-8.538 0a.854.854 0 100-1.707.854.854 0 000 1.707zM189.44 44.965a.854.854 0 100-1.708.854.854 0 000 1.708zm-8.538 0a.853.853 0 10.001-1.706.853.853 0 00-.001 1.706zm-8.537 0a.853.853 0 10.001-1.706.853.853 0 00-.001 1.706zm-8.538 0a.853.853 0 10.001-1.706.853.853 0 00-.001 1.706zm-8.537 0a.854.854 0 100-1.708.854.854 0 000 1.708zm-8.538 0a.853.853 0 10.001-1.706.853.853 0 00-.001 1.706zm-8.537 0a.854.854 0 100-1.708.854.854 0 000 1.708zm-8.538 0a.853.853 0 10.001-1.706.853.853 0 00-.001 1.706zm-8.537 0a.854.854 0 100-1.708.854.854 0 000 1.708zm-8.538 0a.853.853 0 10.001-1.706.853.853 0 00-.001 1.706zm-8.537 0a.853.853 0 10.001-1.706.853.853 0 00-.001 1.706zm-8.537 0a.853.853 0 100-1.707.853.853 0 000 1.707zm-8.538 0a.854.854 0 100-1.707.854.854 0 000 1.707zm-8.538 0a.854.854 0 100-1.707.854.854 0 000 1.707zm-8.537 0a.854.854 0 100-1.707.854.854 0 000 1.707zm-8.537 0a.853.853 0 100-1.707.853.853 0 000 1.707zm-8.538 0a.854.854 0 100-1.707.854.854 0 000 1.707zm-8.537 0a.853.853 0 100-1.707.853.853 0 000 1.707zm-8.538 0a.854.854 0 100-1.707.854.854 0 000 1.707zm-8.538 0a.854.854 0 100-1.707.854.854 0 000 1.707zm-8.537 0a.853.853 0 100-1.707.853.853 0 000 1.707zm-8.537 0a.854.854 0 100-1.707.854.854 0 000 1.707zm-8.538 0a.853.853 0 100-1.707.853.853 0 000 1.707zM189.44 27.899a.854.854 0 100-1.708.854.854 0 000 1.708zm-8.538 0a.853.853 0 10.001-1.707.853.853 0 00-.001 1.707zm-8.537 0a.853.853 0 10.001-1.707.853.853 0 00-.001 1.707zm-8.538 0a.853.853 0 10.001-1.707.853.853 0 00-.001 1.707zm-8.537 0a.854.854 0 100-1.708.854.854 0 000 1.708zm-8.538 0a.853.853 0 10.001-1.707.853.853 0 00-.001 1.707zm-8.537 0a.854.854 0 100-1.708.854.854 0 000 1.708zm-8.538 0a.853.853 0 10.001-1.707.853.853 0 00-.001 1.707zm-8.537 0a.854.854 0 100-1.708.854.854 0 000 1.708zm-8.538 0a.853.853 0 10.001-1.707.853.853 0 00-.001 1.707zm-8.537 0a.853.853 0 10.001-1.707.853.853 0 00-.001 1.707zm85.375-8.534a.854.854 0 100-1.708.854.854 0 000 1.708zm-8.538 0a.853.853 0 10.001-1.707.853.853 0 00-.001 1.707zm-8.537 0a.853.853 0 10.001-1.707.853.853 0 00-.001 1.707zm-8.538 0a.853.853 0 10.001-1.707.853.853 0 00-.001 1.707zm-8.537 0a.854.854 0 100-1.708.854.854 0 000 1.708zm-8.538 0a.853.853 0 10.001-1.707.853.853 0 00-.001 1.707zm-8.537 0a.854.854 0 100-1.708.854.854 0 000 1.708zm-8.538 0a.853.853 0 10.001-1.707.853.853 0 00-.001 1.707zm-8.537 0a.854.854 0 100-1.708.854.854 0 000 1.708zm-8.538 0a.853.853 0 10.001-1.707.853.853 0 00-.001 1.707zm-8.537 0a.853.853 0 10.001-1.707.853.853 0 00-.001 1.707zm85.375-8.533a.854.854 0 100-1.708.854.854 0 000 1.708zm-8.538 0a.853.853 0 10.001-1.707.853.853 0 00-.001 1.707zm-8.537 0a.853.853 0 10.001-1.707.853.853 0 00-.001 1.707zm-8.538 0a.853.853 0 10.001-1.707.853.853 0 00-.001 1.707zm-8.537 0a.854.854 0 100-1.708.854.854 0 000 1.708zm-8.538 0a.853.853 0 10.001-1.707.853.853 0 00-.001 1.707zm-8.537 0a.854.854 0 100-1.708.854.854 0 000 1.708zm-8.538 0a.853.853 0 10.001-1.707.853.853 0 00-.001 1.707zm-8.537 0a.854.854 0 100-1.708.854.854 0 000 1.708zm-8.538 0a.853.853 0 10.001-1.707.853.853 0 00-.001 1.707zm-8.537 0a.853.853 0 10.001-1.707.853.853 0 00-.001 1.707zm85.375-8.533a.854.854 0 100-1.708.854.854 0 000 1.708zm-8.538 0a.853.853 0 10.001-1.707.853.853 0 00-.001 1.707zm-8.537 0a.853.853 0 10.001-1.707.853.853 0 00-.001 1.707zm-8.538 0a.853.853 0 10.001-1.707.853.853 0 00-.001 1.707zm-8.537 0a.854.854 0 100-1.708.854.854 0 000 1.708zm-8.538 0a.853.853 0 10.001-1.707.853.853 0 00-.001 1.707zm-8.537 0a.854.854 0 100-1.708.854.854 0 000 1.708zm-8.538 0a.853.853 0 10.001-1.707.853.853 0 00-.001 1.707zm-8.537 0a.854.854 0 100-1.708.854.854 0 000 1.708zm-8.538 0a.853.853 0 10.001-1.707.853.853 0 00-.001 1.707zm-8.537 0a.853.853 0 10.001-1.707.853.853 0 00-.001 1.707zm85.375 34.133a.854.854 0 100-1.708.854.854 0 000 1.708zm-8.538 0a.853.853 0 10.001-1.707.853.853 0 00-.001 1.707zm-8.537 0a.853.853 0 10.001-1.707.853.853 0 00-.001 1.707zm-8.538 0a.853.853 0 10.001-1.707.853.853 0 00-.001 1.707zm-8.537 0a.854.854 0 100-1.708.854.854 0 000 1.708zm-8.538 0a.853.853 0 10.001-1.707.853.853 0 00-.001 1.707zm-8.537 0a.854.854 0 100-1.708.854.854 0 000 1.708zm-8.538 0a.853.853 0 10.001-1.707.853.853 0 00-.001 1.707zm-8.537 0a.854.854 0 100-1.708.854.854 0 000 1.708zm-8.538 0a.853.853 0 10.001-1.707.853.853 0 00-.001 1.707zm-8.537 0a.853.853 0 10.001-1.707.853.853 0 00-.001 1.707zm-8.537-8.533a.854.854 0 100-1.707.854.854 0 000 1.707zm-8.538 0a.854.854 0 100-1.707.854.854 0 000 1.707zm-8.538 0a.854.854 0 100-1.707.854.854 0 000 1.707zm-8.537 0a.854.854 0 100-1.707.854.854 0 000 1.707zm-8.537 0a.854.854 0 100-1.707.854.854 0 000 1.707zm-8.538 0a.854.854 0 100-1.707.854.854 0 000 1.707zm-8.537 0a.854.854 0 100-1.707.854.854 0 000 1.707zm-8.538 0a.854.854 0 100-1.707.854.854 0 000 1.707zm-8.538 0a.854.854 0 100-1.707.854.854 0 000 1.707zm-8.537 0a.854.854 0 100-1.707.854.854 0 000 1.707zm-8.537 0a.854.854 0 100-1.707.854.854 0 000 1.707zm-8.538 0a.854.854 0 100-1.707.854.854 0 000 1.707zm93.913-8.534a.853.853 0 100-1.707.853.853 0 000 1.707zm-8.538 0a.854.854 0 100-1.707.854.854 0 000 1.707zm-8.538 0a.854.854 0 100-1.707.854.854 0 000 1.707zm-8.537 0a.854.854 0 100-1.707.854.854 0 000 1.707zm-8.537 0a.853.853 0 100-1.707.853.853 0 000 1.707zm-8.538 0a.854.854 0 100-1.707.854.854 0 000 1.707zm-8.537 0a.853.853 0 100-1.707.853.853 0 000 1.707zm-8.538 0a.854.854 0 100-1.707.854.854 0 000 1.707zm-8.538 0a.854.854 0 100-1.707.854.854 0 000 1.707zm-8.537 0a.853.853 0 100-1.707.853.853 0 000 1.707zm-8.537 0a.854.854 0 100-1.707.854.854 0 000 1.707zm-8.538 0a.853.853 0 100-1.707.853.853 0 000 1.707zm93.913-8.533a.853.853 0 100-1.707.853.853 0 000 1.707zm-8.538 0a.854.854 0 100-1.707.854.854 0 000 1.707zm-8.538 0a.854.854 0 100-1.707.854.854 0 000 1.707zm-8.537 0a.854.854 0 100-1.707.854.854 0 000 1.707zm-8.537 0a.853.853 0 100-1.707.853.853 0 000 1.707zm-8.538 0a.854.854 0 100-1.707.854.854 0 000 1.707zm-8.537 0a.853.853 0 100-1.707.853.853 0 000 1.707zm-8.538 0a.854.854 0 100-1.707.854.854 0 000 1.707zm-8.538 0a.854.854 0 100-1.707.854.854 0 000 1.707zm-8.537 0a.853.853 0 100-1.707.853.853 0 000 1.707zm-8.537 0a.854.854 0 100-1.707.854.854 0 000 1.707zm-8.538 0a.853.853 0 100-1.707.853.853 0 000 1.707zm93.913-8.533a.854.854 0 100-1.707.854.854 0 000 1.707zm-8.538 0a.854.854 0 100-1.707.854.854 0 000 1.707zm-8.538 0a.854.854 0 100-1.707.854.854 0 000 1.707zm-8.537 0a.854.854 0 100-1.707.854.854 0 000 1.707zm-8.537 0a.854.854 0 100-1.707.854.854 0 000 1.707zm-8.538 0a.854.854 0 100-1.707.854.854 0 000 1.707zm-8.537 0a.854.854 0 100-1.707.854.854 0 000 1.707zm-8.538 0a.854.854 0 100-1.707.854.854 0 000 1.707zm-8.538 0a.854.854 0 100-1.707.854.854 0 000 1.707zm-8.537 0a.854.854 0 100-1.707.854.854 0 000 1.707zm-8.537 0a.854.854 0 100-1.707.854.854 0 000 1.707zm-8.538 0a.854.854 0 100-1.707.854.854 0 000 1.707zm93.913 34.133a.853.853 0 100-1.707.853.853 0 000 1.707zm-8.538 0a.854.854 0 100-1.707.854.854 0 000 1.707zm-8.538 0a.854.854 0 100-1.707.854.854 0 000 1.707zm-8.537 0a.854.854 0 100-1.707.854.854 0 000 1.707zm-8.537 0a.853.853 0 100-1.707.853.853 0 000 1.707zm-8.538 0a.854.854 0 100-1.707.854.854 0 000 1.707zm-8.537 0a.853.853 0 100-1.707.853.853 0 000 1.707zm-8.538 0a.854.854 0 100-1.707.854.854 0 000 1.707zm-8.538 0a.854.854 0 100-1.707.854.854 0 000 1.707zm-8.537 0a.853.853 0 100-1.707.853.853 0 000 1.707zm-8.537 0a.854.854 0 100-1.707.854.854 0 000 1.707zm-8.538 0a.853.853 0 100-1.707.853.853 0 000 1.707z" fill="#00C8FF"/></svg>