<svg width="242" height="242" fill="none" xmlns="http://www.w3.org/2000/svg"><path d="M137.9 241.6a.853.853 0 10.001-1.707.853.853 0 00-.001 1.707zm-8.537 0a.853.853 0 100-1.706.853.853 0 000 1.706zm-8.538 0a.854.854 0 100-1.708.854.854 0 000 1.708zm17.075-17.067a.853.853 0 10.001-1.707.853.853 0 00-.001 1.707zm-8.537 0a.853.853 0 100-1.706.853.853 0 000 1.706zm-8.538 0a.854.854 0 100-1.708.854.854 0 000 1.708zM137.9 216a.853.853 0 10.001-1.707.853.853 0 00-.001 1.707zm-8.537 0a.853.853 0 100-1.706.853.853 0 000 1.706zm-8.538 0a.854.854 0 100-1.708.854.854 0 000 1.708zm17.075-8.533a.854.854 0 100-1.707.854.854 0 000 1.707zm-8.537 0a.853.853 0 100-1.707.853.853 0 000 1.707zm-8.538 0a.854.854 0 100-1.708.854.854 0 000 1.708zm34.15-8.534a.854.854 0 100-1.708.854.854 0 000 1.708zm-8.537 0a.853.853 0 100-1.706.853.853 0 000 1.706zm-8.538 0a.853.853 0 10.001-1.707.853.853 0 00-.001 1.707zm-8.537 0a.853.853 0 100-1.706.853.853 0 000 1.706zm-8.538 0a.854.854 0 100-1.708.854.854 0 000 1.708zm34.15-8.533a.854.854 0 100-1.708.854.854 0 000 1.708zm-8.537 0a.853.853 0 100-1.706.853.853 0 000 1.706zm-8.538 0a.853.853 0 10.001-1.707.853.853 0 00-.001 1.707zm-8.537 0a.853.853 0 100-1.706.853.853 0 000 1.706zm-8.538 0a.854.854 0 100-1.708.854.854 0 000 1.708zm17.075 42.667a.854.854 0 100-1.708.854.854 0 000 1.708zm-8.537 0a.854.854 0 10-.002-1.708.854.854 0 00.002 1.708zm-8.538 0a.854.854 0 100-1.706.854.854 0 000 1.706zm-8.538 8.533a.853.853 0 10.001-1.707.853.853 0 00-.001 1.707zm-8.537 0a.853.853 0 10.001-1.707.853.853 0 00-.001 1.707zm8.537-17.067a.853.853 0 10.001-1.707.853.853 0 00-.001 1.707zm-8.537 0a.853.853 0 10.001-1.707.853.853 0 00-.001 1.707zm8.537-8.533a.853.853 0 10.001-1.707.853.853 0 00-.001 1.707zm-8.537 0a.853.853 0 10.001-1.707.853.853 0 00-.001 1.707zm-8.537 0a.853.853 0 100-1.707.853.853 0 000 1.707zm-8.538 0a.853.853 0 100-1.707.853.853 0 000 1.707zm25.612-8.533a.854.854 0 100-1.707.854.854 0 000 1.707zm-8.537 0a.854.854 0 100-1.707.854.854 0 000 1.707zm-8.537 0a.854.854 0 100-1.707.854.854 0 000 1.707zm-8.538 0a.854.854 0 100-1.707.854.854 0 000 1.707zm25.612-8.534a.853.853 0 10.001-1.707.853.853 0 00-.001 1.707zm-8.537 0a.853.853 0 10.001-1.707.853.853 0 00-.001 1.707zm-8.537 0a.853.853 0 100-1.707.853.853 0 000 1.707zm-8.538 0a.853.853 0 100-1.707.853.853 0 000 1.707zm25.612-8.533a.853.853 0 10.001-1.707.853.853 0 00-.001 1.707zm-8.537 0a.853.853 0 10.001-1.707.853.853 0 00-.001 1.707zm-8.537 0a.853.853 0 100-1.707.853.853 0 000 1.707zm-8.538 0a.853.853 0 100-1.707.853.853 0 000 1.707zm25.612 42.667a.854.854 0 100-1.708.854.854 0 000 1.708zm-8.537 0a.854.854 0 100-1.708.854.854 0 000 1.708zm51.225-59.734a.854.854 0 100-1.708.854.854 0 000 1.708zm-8.537 0a.853.853 0 100-1.706.853.853 0 000 1.706zm-8.538 0a.853.853 0 10.001-1.707.853.853 0 00-.001 1.707zm-8.537 0a.853.853 0 100-1.706.853.853 0 000 1.706zm-8.538 0a.854.854 0 100-1.708.854.854 0 000 1.708zm34.15-8.533a.854.854 0 100-1.708.854.854 0 000 1.708zm-8.537 0a.853.853 0 100-1.706.853.853 0 000 1.706zm-8.538 0a.853.853 0 10.001-1.707.853.853 0 00-.001 1.707zm-8.537 0a.853.853 0 100-1.706.853.853 0 000 1.706zm-8.538 0a.854.854 0 100-1.708.854.854 0 000 1.708zm76.837-8.533a.854.854 0 100-1.707.854.854 0 000 1.707zm-8.537 0a.854.854 0 100-1.707.854.854 0 000 1.707zm-8.537 0a.853.853 0 100-1.707.853.853 0 000 1.707zm-8.538 0a.854.854 0 100-1.707.854.854 0 000 1.707zm-8.538 0a.854.854 0 100-1.707.854.854 0 000 1.707zm-8.537 0a.854.854 0 100-1.708.854.854 0 000 1.708zm-8.537 0a.853.853 0 100-1.707.853.853 0 000 1.707zm-8.538 0a.854.854 0 100-1.707.854.854 0 000 1.707zm-8.537 0a.853.853 0 100-1.707.853.853 0 000 1.707zm-8.538 0a.854.854 0 100-1.708.854.854 0 000 1.708zm76.837-8.534a.853.853 0 10.001-1.707.853.853 0 00-.001 1.707zm-8.537 0a.853.853 0 10.001-1.707.853.853 0 00-.001 1.707zm-8.537 0a.853.853 0 100-1.706.853.853 0 000 1.706zm-8.538 0a.853.853 0 10.001-1.707.853.853 0 00-.001 1.707zm-8.538 0a.853.853 0 10.001-1.707.853.853 0 00-.001 1.707zm-8.537 0a.854.854 0 100-1.708.854.854 0 000 1.708zm-8.537 0a.853.853 0 100-1.706.853.853 0 000 1.706zm-8.538 0a.853.853 0 10.001-1.707.853.853 0 00-.001 1.707zm-8.537 0a.853.853 0 100-1.706.853.853 0 000 1.706zm-8.538 0a.854.854 0 100-1.708.854.854 0 000 1.708zm34.15 34.134a.854.854 0 100-1.708.854.854 0 000 1.708zm-8.537 0a.853.853 0 100-1.707.853.853 0 000 1.707zm-8.538 0a.854.854 0 100-1.707.854.854 0 000 1.707zm-8.537 0a.853.853 0 100-1.707.853.853 0 000 1.707zm-8.538 0a.854.854 0 100-1.708.854.854 0 000 1.708zm-8.538-8.534a.853.853 0 10.001-1.707.853.853 0 00-.001 1.707zm-8.537 0a.853.853 0 10.001-1.707.853.853 0 00-.001 1.707zm-8.537 0a.853.853 0 100-1.707.853.853 0 000 1.707zm-8.538 0a.853.853 0 100-1.707.853.853 0 000 1.707zm25.612-8.533a.853.853 0 10.001-1.707.853.853 0 00-.001 1.707zm-8.537 0a.853.853 0 10.001-1.707.853.853 0 00-.001 1.707zm-8.537 0a.853.853 0 100-1.707.853.853 0 000 1.707zm-8.538 0a.853.853 0 100-1.707.853.853 0 000 1.707zm25.612-8.533a.854.854 0 100-1.707.854.854 0 000 1.707zm-8.537 0a.854.854 0 100-1.707.854.854 0 000 1.707zm-8.537 0a.854.854 0 100-1.707.854.854 0 000 1.707zm-8.538 0a.854.854 0 100-1.707.854.854 0 000 1.707zm-8.537 0a.854.854 0 100-1.707.854.854 0 000 1.707zm-8.538 0a.854.854 0 100-1.707.854.854 0 000 1.707zm-8.537 0a.854.854 0 100-1.707.854.854 0 000 1.707zm-8.538 0a.854.854 0 100-1.707.854.854 0 000 1.707zm-8.538 0a.854.854 0 100-1.707.854.854 0 000 1.707zm68.3-8.534a.853.853 0 10.001-1.707.853.853 0 00-.001 1.707zm-8.537 0a.853.853 0 10.001-1.707.853.853 0 00-.001 1.707zm-8.537 0a.853.853 0 100-1.707.853.853 0 000 1.707zm-8.538 0a.853.853 0 100-1.707.853.853 0 000 1.707zm-8.537 0a.853.853 0 100-1.707.853.853 0 000 1.707zm-8.538 0a.853.853 0 100-1.707.853.853 0 000 1.707zm-8.537 0a.853.853 0 100-1.707.853.853 0 000 1.707zm-8.538 0a.853.853 0 100-1.707.853.853 0 000 1.707zm-8.538 0a.853.853 0 10.001-1.707.853.853 0 000 1.707zm68.3 34.134a.854.854 0 100-1.707.854.854 0 000 1.707zm-8.537 0a.854.854 0 100-1.707.854.854 0 000 1.707zm-8.537 0a.854.854 0 100-1.707.854.854 0 000 1.707zm-8.538 0a.854.854 0 100-1.707.854.854 0 000 1.707zm119.525-51.2a.854.854 0 100-1.708.854.854 0 000 1.708zm-8.538 0a.854.854 0 100-1.707.854.854 0 000 1.707zm-8.537 0a.854.854 0 100-1.707.854.854 0 000 1.707zm-8.537 0a.853.853 0 100-1.707.853.853 0 000 1.707zm-8.538 0a.854.854 0 100-1.707.854.854 0 000 1.707zm-8.538 0a.854.854 0 100-1.707.854.854 0 000 1.707zm-8.537 0a.854.854 0 100-1.708.854.854 0 000 1.708zm-8.537 0a.853.853 0 100-1.707.853.853 0 000 1.707zm-8.538 0a.854.854 0 100-1.707.854.854 0 000 1.707zm-8.537 0a.853.853 0 100-1.707.853.853 0 000 1.707zm-8.538 0a.854.854 0 100-1.708.854.854 0 000 1.708zm85.375-8.534a.854.854 0 100-1.708.854.854 0 000 1.708zm-8.538 0a.853.853 0 10.001-1.707.853.853 0 00-.001 1.707zm-8.537 0a.853.853 0 10.001-1.707.853.853 0 00-.001 1.707zm-8.537 0a.853.853 0 100-1.706.853.853 0 000 1.706zm-8.538 0a.853.853 0 10.001-1.707.853.853 0 00-.001 1.707zm-8.538 0a.853.853 0 10.001-1.707.853.853 0 00-.001 1.707zm-8.537 0a.854.854 0 100-1.708.854.854 0 000 1.708zm-8.537 0a.853.853 0 100-1.706.853.853 0 000 1.706zm-8.538 0a.853.853 0 10.001-1.707.853.853 0 00-.001 1.707zm-8.537 0a.853.853 0 100-1.706.853.853 0 000 1.706zm-8.538 0a.854.854 0 100-1.708.854.854 0 000 1.708zM206.2 113.6a.854.854 0 100-1.708.854.854 0 000 1.708zm-8.538 0a.853.853 0 10.001-1.707.853.853 0 00-.001 1.707zm-8.537 0a.853.853 0 10.001-1.707.853.853 0 00-.001 1.707zm-8.537 0a.853.853 0 100-1.706.853.853 0 000 1.706zm-8.538 0a.853.853 0 10.001-1.707.853.853 0 00-.001 1.707zm-8.538 0a.853.853 0 10.001-1.707.853.853 0 00-.001 1.707zm-8.537 0a.854.854 0 100-1.708.854.854 0 000 1.708zm-8.537 0a.853.853 0 100-1.706.853.853 0 000 1.706zm-8.538 0a.853.853 0 10.001-1.707.853.853 0 00-.001 1.707zm-8.537 0a.853.853 0 100-1.706.853.853 0 000 1.706zm-8.538 0a.854.854 0 100-1.708.854.854 0 000 1.708zm85.375-8.533a.854.854 0 100-1.706.854.854 0 000 1.706zm-8.538 0a.854.854 0 100-1.708.854.854 0 000 1.708zm-8.537 0a.854.854 0 100-1.708.854.854 0 000 1.708zm-8.537 0a.854.854 0 10-.002-1.708.854.854 0 00.002 1.708zm-8.538 0a.854.854 0 100-1.708.854.854 0 000 1.708zm-8.538 0a.854.854 0 100-1.708.854.854 0 000 1.708zm-8.537 0a.854.854 0 100-1.706.854.854 0 000 1.706zm-8.537 0a.854.854 0 10-.002-1.708.854.854 0 00.002 1.708zm-8.538 0a.854.854 0 100-1.708.854.854 0 000 1.708zm-8.537 0a.854.854 0 10-.002-1.708.854.854 0 00.002 1.708zm-8.538 0a.854.854 0 100-1.706.854.854 0 000 1.706zm85.375-8.534a.854.854 0 100-1.708.854.854 0 000 1.708zm-8.538 0a.853.853 0 10.001-1.707.853.853 0 00-.001 1.707zm-8.537 0a.853.853 0 10.001-1.707.853.853 0 00-.001 1.707zm-8.537 0a.853.853 0 100-1.706.853.853 0 000 1.706zm-8.538 0a.853.853 0 10.001-1.707.853.853 0 00-.001 1.707zm-8.538 0a.853.853 0 10.001-1.707.853.853 0 00-.001 1.707zm-8.537 0a.854.854 0 100-1.708.854.854 0 000 1.708zm-8.537 0a.853.853 0 100-1.706.853.853 0 000 1.706zm-8.538 0a.853.853 0 10.001-1.707.853.853 0 00-.001 1.707zm-8.537 0a.853.853 0 100-1.706.853.853 0 000 1.706zm-8.538 0a.854.854 0 100-1.708.854.854 0 000 1.708zm76.837 42.667a.853.853 0 10.001-1.707.853.853 0 00-.001 1.707zm-8.537 0a.853.853 0 10.001-1.707.853.853 0 00-.001 1.707zm-8.537 0a.853.853 0 100-1.706.853.853 0 000 1.706zm-8.538 0a.853.853 0 10.001-1.707.853.853 0 00-.001 1.707zm-8.538 0a.853.853 0 10.001-1.707.853.853 0 00-.001 1.707zm-8.537 0a.854.854 0 100-1.708.854.854 0 000 1.708zm-8.537 0a.853.853 0 100-1.706.853.853 0 000 1.706zm-8.538 0a.853.853 0 10.001-1.707.853.853 0 00-.001 1.707zm-8.537 0a.853.853 0 100-1.706.853.853 0 000 1.706zm-8.538 0a.854.854 0 100-1.708.854.854 0 000 1.708zM206.2 79.467a.854.854 0 100-1.709.854.854 0 000 1.709zm-8.538 0a.853.853 0 10.001-1.707.853.853 0 00-.001 1.707zm-8.537 0a.853.853 0 10.001-1.707.853.853 0 00-.001 1.707zm-8.537 0a.853.853 0 100-1.707.853.853 0 000 1.707zm-8.538 0a.853.853 0 10.001-1.707.853.853 0 00-.001 1.707zm-8.538 0a.853.853 0 10.001-1.707.853.853 0 00-.001 1.707zm-8.537 0a.854.854 0 100-1.709.854.854 0 000 1.709zm-8.537 0a.853.853 0 100-1.707.853.853 0 000 1.707zm-8.538 0a.853.853 0 10.001-1.707.853.853 0 00-.001 1.707zm-8.537 0a.853.853 0 100-1.707.853.853 0 000 1.707zm-8.538 0a.854.854 0 100-1.709.854.854 0 000 1.709zm42.687-8.534a.853.853 0 10.001-1.707.853.853 0 00-.001 1.707zm-8.537 0a.854.854 0 100-1.708.854.854 0 000 1.708zm-8.537 0a.853.853 0 100-1.706.853.853 0 000 1.706zm-8.538 0a.853.853 0 10.001-1.707.853.853 0 00-.001 1.707zm-8.537 0a.853.853 0 100-1.706.853.853 0 000 1.706zm-8.538 0a.854.854 0 100-1.708.854.854 0 000 1.708zm42.687-8.533a.853.853 0 10.001-1.707.853.853 0 00-.001 1.707zm-8.537 0a.854.854 0 100-1.708.854.854 0 000 1.708zm-8.537 0a.853.853 0 100-1.706.853.853 0 000 1.706zm-8.538 0a.853.853 0 10.001-1.707.853.853 0 00-.001 1.707zm-8.537 0a.853.853 0 100-1.706.853.853 0 000 1.706zm-8.538 0a.854.854 0 100-1.708.854.854 0 000 1.708zm42.687-8.533a.853.853 0 10.001-1.707.853.853 0 00-.001 1.707zm-8.537 0a.854.854 0 100-1.709.854.854 0 000 1.709zm-8.537 0a.853.853 0 100-1.707.853.853 0 000 1.707zm-8.538 0a.853.853 0 10.001-1.707.853.853 0 00-.001 1.707zm-8.537 0a.853.853 0 100-1.707.853.853 0 000 1.707zm-8.538 0a.854.854 0 100-1.709.854.854 0 000 1.709zm42.687-8.534a.853.853 0 10.001-1.707.853.853 0 00-.001 1.707zm-8.537 0a.854.854 0 100-1.708.854.854 0 000 1.708zm-8.537 0a.853.853 0 100-1.706.853.853 0 000 1.706zm-8.538 0a.853.853 0 10.001-1.707.853.853 0 00-.001 1.707zm-8.537 0a.853.853 0 100-1.706.853.853 0 000 1.706zm-8.538 0a.854.854 0 100-1.708.854.854 0 000 1.708zM206.2 88a.854.854 0 100-1.708.854.854 0 000 1.708zm-8.538 0a.853.853 0 10.001-1.707.853.853 0 00-.001 1.707zm-8.537 0a.853.853 0 10.001-1.707.853.853 0 00-.001 1.707zm-8.537 0a.853.853 0 100-1.707.853.853 0 000 1.707zm-8.538 0a.853.853 0 10.001-1.707.853.853 0 00-.001 1.707zm-8.538 0a.853.853 0 10.001-1.707.853.853 0 00-.001 1.707zm-8.537 0a.854.854 0 100-1.708.854.854 0 000 1.708zm-8.537 0a.853.853 0 100-1.707.853.853 0 000 1.707zm-8.538 0a.853.853 0 10.001-1.707A.853.853 0 00137.9 88zm-8.537 0a.853.853 0 100-1.707.853.853 0 000 1.707zm-8.538 0a.854.854 0 100-1.708.854.854 0 000 1.708zm-8.538 42.667a.854.854 0 100-1.707.854.854 0 000 1.707zm-8.537 0a.854.854 0 100-1.707.854.854 0 000 1.707zm-8.537 0a.854.854 0 100-1.707.854.854 0 000 1.707zm-8.538 0a.854.854 0 100-1.707.854.854 0 000 1.707zm-8.537 0a.854.854 0 100-1.707.854.854 0 000 1.707zm-8.538 0a.854.854 0 100-1.707.854.854 0 000 1.707zm-8.537 0a.854.854 0 100-1.707.854.854 0 000 1.707zm-8.538 0a.854.854 0 100-1.707.854.854 0 000 1.707zm-8.538 0a.854.854 0 100-1.707.854.854 0 000 1.707zm-8.537 0a.854.854 0 100-1.707.854.854 0 000 1.707zm-8.538 0a.854.854 0 100-1.707.854.854 0 000 1.707zm-8.537 0a.854.854 0 100-1.707.854.854 0 000 1.707zm-8.537 0a.854.854 0 100-1.707.854.854 0 000 1.707zm-8.538 0a.854.854 0 100-1.707.854.854 0 000 1.707zm110.987-8.534a.853.853 0 10.001-1.707.853.853 0 00-.001 1.707zm-8.537 0a.853.853 0 10.001-1.707.853.853 0 00-.001 1.707zm-8.537 0a.853.853 0 100-1.707.853.853 0 000 1.707zm-8.538 0a.853.853 0 100-1.707.853.853 0 000 1.707zm-8.537 0a.853.853 0 100-1.707.853.853 0 000 1.707zm-8.538 0a.853.853 0 100-1.707.853.853 0 000 1.707zm-8.537 0a.853.853 0 100-1.707.853.853 0 000 1.707zm-8.538 0a.853.853 0 100-1.707.853.853 0 000 1.707zm-8.538 0a.853.853 0 10.001-1.707.853.853 0 000 1.707zm-8.537 0a.853.853 0 100-1.707.853.853 0 000 1.707zm-8.538 0a.853.853 0 100-1.707.853.853 0 000 1.707zm-8.537 0a.853.853 0 100-1.707.853.853 0 000 1.707zm-8.537 0a.853.853 0 100-1.707.853.853 0 000 1.707zm-8.538 0a.853.853 0 100-1.707.853.853 0 000 1.707zm110.987-8.533a.853.853 0 10.001-1.707.853.853 0 00-.001 1.707zm-8.537 0a.853.853 0 10.001-1.707.853.853 0 00-.001 1.707zm-8.537 0a.853.853 0 100-1.707.853.853 0 000 1.707zm-8.538 0a.853.853 0 100-1.707.853.853 0 000 1.707zm-8.537 0a.853.853 0 100-1.707.853.853 0 000 1.707zm-8.538 0a.853.853 0 100-1.707.853.853 0 000 1.707zm-8.537 0a.853.853 0 100-1.707.853.853 0 000 1.707zm-8.538 0a.853.853 0 100-1.707.853.853 0 000 1.707zm-8.538 0a.853.853 0 10.001-1.707.853.853 0 000 1.707zm-8.537 0a.853.853 0 100-1.707.853.853 0 000 1.707zm-8.538 0a.853.853 0 100-1.707.853.853 0 000 1.707zm-8.537 0a.853.853 0 100-1.707.853.853 0 000 1.707zm-8.537 0a.853.853 0 100-1.707.853.853 0 000 1.707zm-8.538 0a.853.853 0 100-1.707.853.853 0 000 1.707zm110.987-8.533a.854.854 0 100-1.708.854.854 0 000 1.708zm-8.537 0a.854.854 0 100-1.708.854.854 0 000 1.708zm-8.537 0a.854.854 0 10-.001-1.709.854.854 0 000 1.709zm-8.538 0a.854.854 0 10-.001-1.709.854.854 0 00.001 1.709zm-8.537 0a.854.854 0 10-.002-1.709.854.854 0 00.002 1.709zm-8.538 0a.854.854 0 10-.001-1.709.854.854 0 000 1.709zm-8.537 0a.854.854 0 10-.001-1.709.854.854 0 000 1.709zm-8.538 0a.854.854 0 10-.001-1.709.854.854 0 00.001 1.709zm-8.538 0a.854.854 0 100-1.709.854.854 0 000 1.709zm-8.537 0a.854.854 0 10-.001-1.709.854.854 0 000 1.709zm-8.538 0a.854.854 0 100-1.709.854.854 0 000 1.709zm-8.537 0a.854.854 0 100-1.709.854.854 0 000 1.709zm-8.537 0a.854.854 0 10-.001-1.709.854.854 0 000 1.709zm-8.538 0a.854.854 0 10-.001-1.709.854.854 0 00.001 1.709zm110.987-8.534a.853.853 0 10.001-1.707.853.853 0 00-.001 1.707zm-8.537 0a.853.853 0 10.001-1.707.853.853 0 00-.001 1.707zm-8.537 0a.853.853 0 100-1.707.853.853 0 000 1.707zm-8.538 0a.853.853 0 100-1.707.853.853 0 000 1.707zm-8.537 0a.853.853 0 100-1.707.853.853 0 000 1.707zm-8.538 0a.853.853 0 100-1.707.853.853 0 000 1.707zm-8.537 0a.853.853 0 100-1.707.853.853 0 000 1.707zm-8.538 0a.854.854 0 100-1.707.854.854 0 000 1.707zm-8.538 0a.854.854 0 10.001-1.707.854.854 0 000 1.707zm-8.537 0a.853.853 0 100-1.707.853.853 0 000 1.707zm-8.538 0a.854.854 0 100-1.707.854.854 0 000 1.707zm-8.537 0a.853.853 0 100-1.707.853.853 0 000 1.707zm-8.537 0a.853.853 0 100-1.707.853.853 0 000 1.707zm-8.538 0a.853.853 0 100-1.707.853.853 0 000 1.707zM112.287 139.2a.853.853 0 10.001-1.707.853.853 0 00-.001 1.707zm-8.537 0a.853.853 0 10.001-1.707.853.853 0 00-.001 1.707zm-8.537 0a.853.853 0 100-1.707.853.853 0 000 1.707zm-8.538 0a.853.853 0 100-1.707.853.853 0 000 1.707zm-8.537 0a.853.853 0 100-1.707.853.853 0 000 1.707zm-8.538 0a.853.853 0 100-1.707.853.853 0 000 1.707zm-8.537 0a.853.853 0 100-1.707.853.853 0 000 1.707zm-8.538 0a.853.853 0 100-1.707.853.853 0 000 1.707zm-8.538 0a.853.853 0 10.001-1.707.853.853 0 000 1.707zm68.3-59.733a.853.853 0 10.001-1.707.853.853 0 00-.001 1.707zm-8.537 0a.853.853 0 10.001-1.707.853.853 0 00-.001 1.707zm-8.537 0a.854.854 0 100-1.707.854.854 0 000 1.707zm-8.538 0a.854.854 0 100-1.707.854.854 0 000 1.707zm-8.537 0a.854.854 0 100-1.707.854.854 0 000 1.707zm-8.538 0a.854.854 0 100-1.707.854.854 0 000 1.707zm-8.537 0a.854.854 0 100-1.707.854.854 0 000 1.707zm-8.538 0a.854.854 0 100-1.708.854.854 0 000 1.708zm-8.538 0a.854.854 0 100-1.708.854.854 0 000 1.708zm68.3-8.534a.853.853 0 10.001-1.707.853.853 0 00-.001 1.707zm-8.537 0a.853.853 0 10.001-1.707.853.853 0 00-.001 1.707zm-8.537 0a.853.853 0 100-1.707.853.853 0 000 1.707zm-8.538 0a.853.853 0 100-1.707.853.853 0 000 1.707zm-8.537 0a.853.853 0 100-1.707.853.853 0 000 1.707zm34.149-8.533a.853.853 0 10.001-1.707.853.853 0 00-.001 1.707zm-8.537 0a.853.853 0 10.001-1.707.853.853 0 00-.001 1.707zm-8.537 0a.853.853 0 100-1.707.853.853 0 000 1.707zm-8.538 0a.853.853 0 100-1.707.853.853 0 000 1.707zm-8.537 0a.853.853 0 100-1.707.853.853 0 000 1.707zm34.149-8.533a.853.853 0 10.001-1.707.853.853 0 00-.001 1.707zm-8.537 0a.853.853 0 10.001-1.707.853.853 0 00-.001 1.707zm-8.537 0a.854.854 0 100-1.708.854.854 0 000 1.708zm-8.538 0a.854.854 0 100-1.708.854.854 0 000 1.708zm-8.537 0a.854.854 0 100-1.707.854.854 0 000 1.707zm34.149-8.534a.853.853 0 10.001-1.707.853.853 0 00-.001 1.707zm-8.537 0a.853.853 0 10.001-1.707.853.853 0 00-.001 1.707zm-8.537 0a.854.854 0 100-1.707.854.854 0 000 1.707zm-8.538 0a.854.854 0 100-1.707.854.854 0 000 1.707zm-8.537 0a.854.854 0 100-1.707.854.854 0 000 1.707zM112.287 88a.853.853 0 10.001-1.707.853.853 0 00-.001 1.707zm-8.537 0a.853.853 0 10.001-1.707.853.853 0 00-.001 1.707zm-8.537 0a.854.854 0 100-1.707.854.854 0 000 1.707zm-8.538 0a.854.854 0 100-1.707.854.854 0 000 1.707zm-8.537 0a.854.854 0 100-1.707.854.854 0 000 1.707zM69.6 88a.854.854 0 100-1.707.854.854 0 000 1.707zm-8.537 0a.854.854 0 100-1.707.854.854 0 000 1.707zm-8.538 0a.854.854 0 100-1.707.854.854 0 000 1.707zm-8.538 0a.854.854 0 100-1.707.854.854 0 000 1.707zm102.451-59.733a.853.853 0 100-1.707.853.853 0 000 1.707zm-8.538 0a.853.853 0 10.001-1.707.853.853 0 00-.001 1.707zm-8.537 0a.853.853 0 100-1.707.853.853 0 000 1.707zm-8.538 0a.854.854 0 100-1.708.854.854 0 000 1.708zm25.613-8.534a.853.853 0 100-1.706.853.853 0 000 1.706zm-8.538 0a.853.853 0 10.001-1.707.853.853 0 00-.001 1.707zm-8.537 0a.853.853 0 100-1.706.853.853 0 000 1.706zm-8.538 0a.854.854 0 100-1.708.854.854 0 000 1.708zm25.613-8.533a.853.853 0 100-1.707.853.853 0 000 1.707zm-8.538 0a.853.853 0 10.001-1.707.853.853 0 00-.001 1.707zm-8.537 0a.853.853 0 100-1.707.853.853 0 000 1.707zm-8.538 0a.854.854 0 100-1.708.854.854 0 000 1.708zm25.613-8.533a.853.853 0 100-1.707.853.853 0 000 1.707zm-8.538 0a.853.853 0 10.001-1.707.853.853 0 00-.001 1.707zm-8.537 0a.853.853 0 100-1.707.853.853 0 000 1.707zm-8.538 0a.854.854 0 100-1.709.854.854 0 000 1.709zM146.438 36.8a.853.853 0 100-1.706.853.853 0 000 1.706zm-8.538 0a.853.853 0 10.001-1.707.853.853 0 00-.001 1.707zm-8.537 0a.853.853 0 100-1.706.853.853 0 000 1.706zm-8.538 0a.854.854 0 100-1.708.854.854 0 000 1.708zm-8.538-8.533a.853.853 0 10.001-1.707.853.853 0 00-.001 1.707zm-8.537 0a.853.853 0 10.001-1.707.853.853 0 00-.001 1.707zm-8.537 0a.853.853 0 100-1.707.853.853 0 000 1.707zm17.074-8.534a.853.853 0 10.001-1.707.853.853 0 00-.001 1.707zm-8.537 0a.853.853 0 10.001-1.707.853.853 0 00-.001 1.707zm-8.537 0a.854.854 0 100-1.707.854.854 0 000 1.707zm17.074-8.533a.853.853 0 10.001-1.707.853.853 0 00-.001 1.707zm-8.537 0a.853.853 0 10.001-1.707.853.853 0 00-.001 1.707zm-8.537 0a.853.853 0 100-1.707.853.853 0 000 1.707zm17.074-8.533a.853.853 0 10.001-1.707.853.853 0 00-.001 1.707zm-8.537 0a.853.853 0 10.001-1.707.853.853 0 00-.001 1.707zm-8.537 0a.854.854 0 100-1.707.854.854 0 000 1.707zM112.287 36.8a.853.853 0 10.001-1.707.853.853 0 00-.001 1.707zm-8.537 0a.853.853 0 10.001-1.707.853.853 0 00-.001 1.707zm-8.537 0a.853.853 0 100-1.707.853.853 0 000 1.707zm145.137 93.867a.854.854 0 100-1.708.854.854 0 000 1.708zm-8.537 0a.854.854 0 100-1.708.854.854 0 000 1.708zm-8.538 0a.854.854 0 100-1.707.854.854 0 000 1.707zm-8.537 0a.853.853 0 100-1.707.853.853 0 000 1.707zm25.612-8.534a.854.854 0 100-1.708.854.854 0 000 1.708zm-8.537 0a.854.854 0 100-1.708.854.854 0 000 1.708zm-8.538 0a.853.853 0 10.001-1.707.853.853 0 00-.001 1.707zm-8.537 0a.853.853 0 100-1.706.853.853 0 000 1.706zm25.612-8.533a.854.854 0 100-1.708.854.854 0 000 1.708zm-8.537 0a.854.854 0 100-1.708.854.854 0 000 1.708zm-8.538 0a.853.853 0 10.001-1.707.853.853 0 00-.001 1.707zm-8.537 0a.853.853 0 100-1.706.853.853 0 000 1.706zm25.612-8.533a.854.854 0 100-1.706.854.854 0 000 1.706zm-8.537 0a.854.854 0 100-1.706.854.854 0 000 1.706zm-8.538 0a.854.854 0 100-1.708.854.854 0 000 1.708zm-8.537 0a.854.854 0 10-.002-1.708.854.854 0 00.002 1.708zm25.612-8.534a.854.854 0 100-1.708.854.854 0 000 1.708zm-8.537 0a.854.854 0 100-1.708.854.854 0 000 1.708zm-8.538 0a.853.853 0 10.001-1.707.853.853 0 00-.001 1.707zm-8.537 0a.853.853 0 100-1.706.853.853 0 000 1.706z" fill="#00C8FF"/></svg>