<svg width="190" height="190" fill="none" xmlns="http://www.w3.org/2000/svg"><path d="M189.037 181.293a.853.853 0 10.001-1.707.853.853 0 00-.001 1.707zm-8.537 0a.853.853 0 10.001-1.707.853.853 0 00-.001 1.707zm-8.537 0a.853.853 0 100-1.706.853.853 0 000 1.706zm-8.538 0a.853.853 0 10.001-1.707.853.853 0 00-.001 1.707zm-8.538 0a.853.853 0 10.001-1.707.853.853 0 00-.001 1.707zm-8.537 0a.854.854 0 100-1.708.854.854 0 000 1.708zm-8.537 0a.853.853 0 100-1.706.853.853 0 000 1.706zm-8.538 0a.854.854 0 100-1.708.854.854 0 000 1.708zm-8.537 0a.853.853 0 100-1.706.853.853 0 000 1.706zm-8.538 0a.854.854 0 100-1.708.854.854 0 000 1.708zm-8.538 0a.853.853 0 10.001-1.707.853.853 0 00-.001 1.707zm85.375-8.533a.853.853 0 10.001-1.707.853.853 0 00-.001 1.707zm-8.537 0a.853.853 0 10.001-1.707.853.853 0 00-.001 1.707zm-8.537 0a.853.853 0 100-1.706.853.853 0 000 1.706zm-8.538 0a.853.853 0 10.001-1.707.853.853 0 00-.001 1.707zm-8.538 0a.853.853 0 10.001-1.707.853.853 0 00-.001 1.707zm-8.537 0a.854.854 0 100-1.708.854.854 0 000 1.708zm-8.537 0a.853.853 0 100-1.706.853.853 0 000 1.706zm-8.538 0a.854.854 0 100-1.708.854.854 0 000 1.708zm-8.537 0a.853.853 0 100-1.706.853.853 0 000 1.706zm-8.538 0a.854.854 0 100-1.708.854.854 0 000 1.708zm-8.538 0a.853.853 0 10.001-1.707.853.853 0 00-.001 1.707zm85.375-8.533a.854.854 0 100-1.707.854.854 0 000 1.707zm-8.537 0a.854.854 0 100-1.707.854.854 0 000 1.707zm-8.537 0a.853.853 0 100-1.707.853.853 0 000 1.707zm-8.538 0a.854.854 0 100-1.707.854.854 0 000 1.707zm-8.538 0a.854.854 0 100-1.707.854.854 0 000 1.707zm-8.537 0a.854.854 0 100-1.708.854.854 0 000 1.708zm-8.537 0a.853.853 0 100-1.707.853.853 0 000 1.707zm-8.538 0a.854.854 0 100-1.708.854.854 0 000 1.708zm-8.537 0a.853.853 0 100-1.707.853.853 0 000 1.707zm-8.538 0a.854.854 0 100-1.708.854.854 0 000 1.708zm-8.538 0a.854.854 0 100-1.707.854.854 0 000 1.707zm85.375-8.534a.853.853 0 10.001-1.707.853.853 0 00-.001 1.707zm-8.537 0a.853.853 0 10.001-1.707.853.853 0 00-.001 1.707zm-8.537 0a.853.853 0 100-1.706.853.853 0 000 1.706zm-8.538 0a.853.853 0 10.001-1.707.853.853 0 00-.001 1.707zm-8.538 0a.853.853 0 10.001-1.707.853.853 0 00-.001 1.707zm-8.537 0a.854.854 0 100-1.708.854.854 0 000 1.708zm-8.537 0a.853.853 0 100-1.706.853.853 0 000 1.706zm-8.538 0a.854.854 0 100-1.708.854.854 0 000 1.708zm-8.537 0a.853.853 0 100-1.706.853.853 0 000 1.706zm-8.538 0a.854.854 0 100-1.708.854.854 0 000 1.708zm-8.538 0a.853.853 0 10.001-1.707.853.853 0 00-.001 1.707zm85.375-8.533a.853.853 0 10.001-1.707.853.853 0 00-.001 1.707zm-8.537 0a.853.853 0 10.001-1.707.853.853 0 00-.001 1.707zm-8.537 0a.853.853 0 100-1.706.853.853 0 000 1.706zm-8.538 0a.853.853 0 10.001-1.707.853.853 0 00-.001 1.707zm-8.538 0a.853.853 0 10.001-1.707.853.853 0 00-.001 1.707zm-8.537 0a.854.854 0 100-1.708.854.854 0 000 1.708zm-8.537 0a.853.853 0 100-1.706.853.853 0 000 1.706zm-8.538 0a.854.854 0 100-1.708.854.854 0 000 1.708zm-8.537 0a.853.853 0 100-1.706.853.853 0 000 1.706zm-8.538 0a.854.854 0 100-1.708.854.854 0 000 1.708zm-8.538 0a.853.853 0 10.001-1.707.853.853 0 00-.001 1.707zm85.375 42.667a.854.854 0 100-1.707.854.854 0 000 1.707zm-8.537 0a.854.854 0 100-1.707.854.854 0 000 1.707zm-8.537 0a.853.853 0 100-1.707.853.853 0 000 1.707zm-8.538 0a.854.854 0 100-1.707.854.854 0 000 1.707zm-8.538 0a.854.854 0 100-1.707.854.854 0 000 1.707zm-8.537 0a.854.854 0 100-1.708.854.854 0 000 1.708zm-8.537 0a.853.853 0 100-1.707.853.853 0 000 1.707zm-8.538 0a.854.854 0 100-1.708.854.854 0 000 1.708zm-8.537 0a.853.853 0 100-1.707.853.853 0 000 1.707zm-8.538 0a.854.854 0 100-1.708.854.854 0 000 1.708zm-8.538 0a.854.854 0 100-1.707.854.854 0 000 1.707zm85.375-59.734a.853.853 0 10.001-1.707.853.853 0 00-.001 1.707zm-8.537 0a.853.853 0 10.001-1.707.853.853 0 00-.001 1.707zm-8.537 0a.853.853 0 100-1.706.853.853 0 000 1.706zm-8.538 0a.853.853 0 10.001-1.707.853.853 0 00-.001 1.707zm-8.538 0a.853.853 0 10.001-1.707.853.853 0 00-.001 1.707zm-8.537 0a.854.854 0 100-1.708.854.854 0 000 1.708zm-8.537 0a.853.853 0 100-1.706.853.853 0 000 1.706zm-8.538 0a.854.854 0 100-1.708.854.854 0 000 1.708zm-8.537 0a.853.853 0 100-1.706.853.853 0 000 1.706zm-8.538 0a.854.854 0 100-1.708.854.854 0 000 1.708zm-8.538 0a.853.853 0 10.001-1.707.853.853 0 00-.001 1.707zm85.375-8.533a.853.853 0 10.001-1.707.853.853 0 00-.001 1.707zm-8.537 0a.853.853 0 10.001-1.707.853.853 0 00-.001 1.707zm-8.537 0a.853.853 0 100-1.706.853.853 0 000 1.706zm-8.538 0a.853.853 0 10.001-1.707.853.853 0 00-.001 1.707zm-8.538 0a.853.853 0 10.001-1.707.853.853 0 00-.001 1.707zm-8.537 0a.854.854 0 100-1.708.854.854 0 000 1.708zm-8.537 0a.853.853 0 100-1.706.853.853 0 000 1.706zm-8.538 0a.854.854 0 100-1.708.854.854 0 000 1.708zm-8.537 0a.853.853 0 100-1.706.853.853 0 000 1.706zm-8.538 0a.854.854 0 100-1.708.854.854 0 000 1.708zm-8.538 0a.853.853 0 10.001-1.707.853.853 0 00-.001 1.707zm85.375-8.533a.854.854 0 100-1.707.854.854 0 000 1.707zm-8.537 0a.854.854 0 100-1.707.854.854 0 000 1.707zm-8.537 0a.853.853 0 100-1.707.853.853 0 000 1.707zm-8.538 0a.854.854 0 100-1.707.854.854 0 000 1.707zm-8.538 0a.854.854 0 100-1.707.854.854 0 000 1.707zm-8.537 0a.854.854 0 100-1.708.854.854 0 000 1.708zm-8.537 0a.853.853 0 100-1.707.853.853 0 000 1.707zm-8.538 0a.854.854 0 100-1.708.854.854 0 000 1.708zm-8.537 0a.853.853 0 100-1.707.853.853 0 000 1.707zm-8.538 0a.854.854 0 100-1.708.854.854 0 000 1.708zm-8.538 0a.854.854 0 100-1.707.854.854 0 000 1.707zm85.375-8.534a.853.853 0 10.001-1.707.853.853 0 00-.001 1.707zm-8.537 0a.853.853 0 10.001-1.707.853.853 0 00-.001 1.707zm-8.537 0a.853.853 0 100-1.706.853.853 0 000 1.706zm-8.538 0a.853.853 0 10.001-1.707.853.853 0 00-.001 1.707zm-8.538 0a.853.853 0 10.001-1.707.853.853 0 00-.001 1.707zm-8.537 0a.854.854 0 100-1.708.854.854 0 000 1.708zm-8.537 0a.853.853 0 100-1.706.853.853 0 000 1.706zm-8.538 0a.854.854 0 100-1.708.854.854 0 000 1.708zm-8.537 0a.853.853 0 100-1.706.853.853 0 000 1.706zm-8.538 0a.854.854 0 100-1.708.854.854 0 000 1.708zm-8.538 0a.853.853 0 10.001-1.707.853.853 0 00-.001 1.707zm85.375-8.533a.853.853 0 10.001-1.707.853.853 0 00-.001 1.707zm-8.537 0a.853.853 0 10.001-1.707.853.853 0 00-.001 1.707zm-8.537 0a.853.853 0 100-1.706.853.853 0 000 1.706zm-8.538 0a.853.853 0 10.001-1.707.853.853 0 00-.001 1.707zm-8.538 0a.853.853 0 10.001-1.707.853.853 0 00-.001 1.707zm-8.537 0a.854.854 0 100-1.708.854.854 0 000 1.708zm-8.537 0a.853.853 0 100-1.706.853.853 0 000 1.706zm-8.538 0a.854.854 0 100-1.708.854.854 0 000 1.708zm-8.537 0a.853.853 0 100-1.706.853.853 0 000 1.706zm-8.538 0a.854.854 0 100-1.708.854.854 0 000 1.708zm-8.538 0a.853.853 0 10.001-1.707.853.853 0 00-.001 1.707zm85.375 42.667a.854.854 0 100-1.707.854.854 0 000 1.707zm-8.537 0a.854.854 0 100-1.707.854.854 0 000 1.707zm-8.537 0a.853.853 0 100-1.707.853.853 0 000 1.707zm-8.538 0a.854.854 0 100-1.707.854.854 0 000 1.707zm-8.538 0a.854.854 0 100-1.707.854.854 0 000 1.707zm-8.537 0a.854.854 0 100-1.708.854.854 0 000 1.708zm-8.537 0a.853.853 0 100-1.707.853.853 0 000 1.707zm-8.538 0a.854.854 0 100-1.708.854.854 0 000 1.708zm-8.537 0a.853.853 0 100-1.707.853.853 0 000 1.707zm-8.538 0a.854.854 0 100-1.708.854.854 0 000 1.708zm-8.538 0a.854.854 0 100-1.707.854.854 0 000 1.707zm-8.537 42.666a.853.853 0 100-1.707.853.853 0 000 1.707zm-8.538 0a.853.853 0 10.001-1.707.853.853 0 000 1.707zm-8.537 0a.853.853 0 100-1.707.853.853 0 000 1.707zm-8.538 0a.853.853 0 10.001-1.707.853.853 0 000 1.707zm-8.537 0a.853.853 0 100-1.707.853.853 0 000 1.707zm-8.537 0a.853.853 0 100-1.707.853.853 0 000 1.707zm-8.538 0a.853.853 0 100-1.707.853.853 0 000 1.707zm-8.538 0a.853.853 0 10.001-1.707.853.853 0 000 1.707zm-8.537 0a.853.853 0 100-1.707.853.853 0 000 1.707zm-8.538 0a.853.853 0 10.001-1.707.853.853 0 000 1.707zm-8.537 0a.853.853 0 100-1.707.853.853 0 000 1.707zm-8.538 0a.853.853 0 10.001-1.707.853.853 0 000 1.707zm93.913-8.533a.853.853 0 100-1.707.853.853 0 000 1.707zm-8.538 0a.853.853 0 10.001-1.707.853.853 0 000 1.707zm-8.537 0a.853.853 0 100-1.707.853.853 0 000 1.707zm-8.538 0a.853.853 0 10.001-1.707.853.853 0 000 1.707zm-8.537 0a.853.853 0 100-1.707.853.853 0 000 1.707zm-8.537 0a.853.853 0 100-1.707.853.853 0 000 1.707zm-8.538 0a.853.853 0 100-1.707.853.853 0 000 1.707zm-8.538 0a.853.853 0 10.001-1.707.853.853 0 000 1.707zm-8.537 0a.853.853 0 100-1.707.853.853 0 000 1.707zm-8.538 0a.853.853 0 10.001-1.707.853.853 0 000 1.707zm-8.537 0a.853.853 0 100-1.707.853.853 0 000 1.707zm-8.538 0a.853.853 0 10.001-1.707.853.853 0 000 1.707zm93.913-8.533a.854.854 0 100-1.707.854.854 0 000 1.707zm-8.538 0a.854.854 0 100-1.707.854.854 0 000 1.707zm-8.537 0a.854.854 0 100-1.707.854.854 0 000 1.707zm-8.538 0a.854.854 0 100-1.707.854.854 0 000 1.707zm-8.537 0a.854.854 0 100-1.707.854.854 0 000 1.707zm-8.537 0a.854.854 0 100-1.707.854.854 0 000 1.707zm-8.538 0a.854.854 0 100-1.707.854.854 0 000 1.707zm-8.538 0a.854.854 0 100-1.707.854.854 0 000 1.707zm-8.537 0a.854.854 0 100-1.707.854.854 0 000 1.707zm-8.538 0a.854.854 0 100-1.707.854.854 0 000 1.707zm-8.537 0a.854.854 0 100-1.707.854.854 0 000 1.707zm-8.538 0a.854.854 0 100-1.707.854.854 0 000 1.707zm93.913-8.534a.853.853 0 100-1.707.853.853 0 000 1.707zm-8.538 0a.853.853 0 10.001-1.707.853.853 0 000 1.707zm-8.537 0a.853.853 0 100-1.707.853.853 0 000 1.707zm-8.538 0a.853.853 0 10.001-1.707.853.853 0 000 1.707zm-8.537 0a.853.853 0 100-1.707.853.853 0 000 1.707zm-8.537 0a.853.853 0 100-1.707.853.853 0 000 1.707zm-8.538 0a.853.853 0 100-1.707.853.853 0 000 1.707zm-8.538 0a.853.853 0 10.001-1.707.853.853 0 000 1.707zm-8.537 0a.853.853 0 100-1.707.853.853 0 000 1.707zm-8.538 0a.853.853 0 10.001-1.707.853.853 0 000 1.707zm-8.537 0a.853.853 0 100-1.707.853.853 0 000 1.707zm-8.538 0a.853.853 0 10.001-1.707.853.853 0 000 1.707zm93.913-8.533a.853.853 0 100-1.707.853.853 0 000 1.707zm-8.538 0a.853.853 0 10.001-1.707.853.853 0 000 1.707zm-8.537 0a.853.853 0 100-1.707.853.853 0 000 1.707zm-8.538 0a.853.853 0 10.001-1.707.853.853 0 000 1.707zm-8.537 0a.853.853 0 100-1.707.853.853 0 000 1.707zm-8.537 0a.853.853 0 100-1.707.853.853 0 000 1.707zm-8.538 0a.853.853 0 100-1.707.853.853 0 000 1.707zm-8.538 0a.853.853 0 10.001-1.707.853.853 0 000 1.707zm-8.537 0a.853.853 0 100-1.707.853.853 0 000 1.707zm-8.538 0a.853.853 0 10.001-1.707.853.853 0 000 1.707zm-8.537 0a.853.853 0 100-1.707.853.853 0 000 1.707zm-8.538 0a.853.853 0 10.001-1.707.853.853 0 000 1.707zm93.913 42.667a.854.854 0 100-1.707.854.854 0 000 1.707zm-8.538 0a.854.854 0 100-1.707.854.854 0 000 1.707zm-8.537 0a.854.854 0 100-1.707.854.854 0 000 1.707zm-8.538 0a.854.854 0 100-1.707.854.854 0 000 1.707zm-8.537 0a.854.854 0 100-1.707.854.854 0 000 1.707zm-8.537 0a.854.854 0 100-1.707.854.854 0 000 1.707zm-8.538 0a.854.854 0 100-1.707.854.854 0 000 1.707zm-8.538 0a.854.854 0 100-1.707.854.854 0 000 1.707zm-8.537 0a.854.854 0 100-1.707.854.854 0 000 1.707zm-8.538 0a.854.854 0 100-1.707.854.854 0 000 1.707zm-8.537 0a.854.854 0 100-1.707.854.854 0 000 1.707zm-8.538 0a.854.854 0 100-1.707.854.854 0 000 1.707zm93.913-59.734a.853.853 0 100-1.707.853.853 0 000 1.707zm-8.538 0a.853.853 0 10.001-1.707.853.853 0 000 1.707zm-8.537 0a.853.853 0 100-1.707.853.853 0 000 1.707zm-8.538 0a.853.853 0 10.001-1.707.853.853 0 000 1.707zm-8.537 0a.853.853 0 100-1.707.853.853 0 000 1.707zm-8.537 0a.853.853 0 100-1.707.853.853 0 000 1.707zm-8.538 0a.853.853 0 100-1.707.853.853 0 000 1.707zm-8.538 0a.853.853 0 10.001-1.707.853.853 0 000 1.707zm-8.537 0a.853.853 0 100-1.707.853.853 0 000 1.707zm-8.538 0a.853.853 0 10.001-1.707.853.853 0 000 1.707zm-8.537 0a.853.853 0 100-1.707.853.853 0 000 1.707zm-8.538 0a.853.853 0 10.001-1.707.853.853 0 000 1.707zm93.913-8.533a.853.853 0 100-1.707.853.853 0 000 1.707zm-8.538 0a.853.853 0 10.001-1.707.853.853 0 000 1.707zm-8.537 0a.853.853 0 100-1.707.853.853 0 000 1.707zm-8.538 0a.853.853 0 10.001-1.707.853.853 0 000 1.707zm-8.537 0a.853.853 0 100-1.707.853.853 0 000 1.707zm-8.537 0a.853.853 0 100-1.707.853.853 0 000 1.707zm-8.538 0a.853.853 0 100-1.707.853.853 0 000 1.707zm-8.538 0a.853.853 0 10.001-1.707.853.853 0 000 1.707zm-8.537 0a.853.853 0 100-1.707.853.853 0 000 1.707zm-8.538 0a.853.853 0 10.001-1.707.853.853 0 000 1.707zm-8.537 0a.853.853 0 100-1.707.853.853 0 000 1.707zm-8.538 0a.853.853 0 10.001-1.707.853.853 0 000 1.707zm93.913-8.533a.854.854 0 100-1.707.854.854 0 000 1.707zm-8.538 0a.854.854 0 100-1.707.854.854 0 000 1.707zm-8.537 0a.854.854 0 100-1.707.854.854 0 000 1.707zm-8.538 0a.854.854 0 100-1.707.854.854 0 000 1.707zm-8.537 0a.854.854 0 100-1.707.854.854 0 000 1.707zm-8.537 0a.854.854 0 100-1.707.854.854 0 000 1.707zm-8.538 0a.854.854 0 100-1.707.854.854 0 000 1.707zm-8.538 0a.854.854 0 100-1.707.854.854 0 000 1.707zm-8.537 0a.854.854 0 100-1.707.854.854 0 000 1.707zm-8.538 0a.854.854 0 100-1.707.854.854 0 000 1.707zm-8.537 0a.854.854 0 100-1.707.854.854 0 000 1.707zm-8.538 0a.854.854 0 100-1.707.854.854 0 000 1.707zm93.913-8.534a.853.853 0 100-1.707.853.853 0 000 1.707zm-8.538 0a.853.853 0 10.001-1.707.853.853 0 000 1.707zm-8.537 0a.853.853 0 100-1.707.853.853 0 000 1.707zm-8.538 0a.853.853 0 10.001-1.707.853.853 0 000 1.707zm-8.537 0a.853.853 0 100-1.707.853.853 0 000 1.707zm-8.537 0a.853.853 0 100-1.707.853.853 0 000 1.707zm-8.538 0a.853.853 0 100-1.707.853.853 0 000 1.707zm-8.538 0a.853.853 0 10.001-1.707.853.853 0 000 1.707zm-8.537 0a.853.853 0 100-1.707.853.853 0 000 1.707zm-8.538 0a.853.853 0 10.001-1.707.853.853 0 000 1.707zm-8.537 0a.853.853 0 100-1.707.853.853 0 000 1.707zm-8.538 0a.853.853 0 10.001-1.707.853.853 0 000 1.707zm93.913-8.533a.854.854 0 100-1.707.854.854 0 000 1.707zm-8.538 0a.854.854 0 100-1.707.854.854 0 000 1.707zm-8.537 0a.854.854 0 100-1.707.854.854 0 000 1.707zm-8.538 0a.854.854 0 100-1.707.854.854 0 000 1.707zm-8.537 0a.854.854 0 100-1.707.854.854 0 000 1.707zm-8.537 0a.854.854 0 100-1.707.854.854 0 000 1.707zm-8.538 0a.854.854 0 100-1.707.854.854 0 000 1.707zm-8.538 0a.854.854 0 100-1.707.854.854 0 000 1.707zm-8.537 0a.854.854 0 100-1.707.854.854 0 000 1.707zm-8.538 0a.854.854 0 100-1.707.854.854 0 000 1.707zm-8.537 0a.854.854 0 100-1.707.854.854 0 000 1.707zm-8.538 0a.854.854 0 100-1.707.854.854 0 000 1.707zm93.913 42.667a.854.854 0 100-1.707.854.854 0 000 1.707zm-8.538 0a.854.854 0 100-1.707.854.854 0 000 1.707zm-8.537 0a.854.854 0 100-1.707.854.854 0 000 1.707zm-8.538 0a.854.854 0 100-1.707.854.854 0 000 1.707zm-8.537 0a.854.854 0 100-1.707.854.854 0 000 1.707zm-8.537 0a.854.854 0 100-1.707.854.854 0 000 1.707zm-8.538 0a.854.854 0 100-1.707.854.854 0 000 1.707zm-8.538 0a.854.854 0 100-1.707.854.854 0 000 1.707zm-8.537 0a.854.854 0 100-1.707.854.854 0 000 1.707zm-8.538 0a.854.854 0 100-1.707.854.854 0 000 1.707zm-8.537 0a.854.854 0 100-1.707.854.854 0 000 1.707zm-8.538 0a.854.854 0 100-1.707.854.854 0 000 1.707zm187.825-59.734a.853.853 0 10.001-1.706.853.853 0 00-.001 1.706zm-8.537 0a.853.853 0 10.001-1.706.853.853 0 00-.001 1.706zm-8.537 0a.853.853 0 100-1.706.853.853 0 000 1.706zm-8.538 0a.853.853 0 10.001-1.706.853.853 0 00-.001 1.706zm-8.538 0a.853.853 0 10.001-1.706.853.853 0 00-.001 1.706zm-8.537 0a.854.854 0 100-1.708.854.854 0 000 1.708zm-8.537 0a.853.853 0 100-1.706.853.853 0 000 1.706zm-8.538 0a.854.854 0 100-1.708.854.854 0 000 1.708zm-8.537 0a.853.853 0 100-1.706.853.853 0 000 1.706zm-8.538 0a.854.854 0 100-1.708.854.854 0 000 1.708zm-8.538 0a.853.853 0 10.001-1.706.853.853 0 00-.001 1.706zm85.375-8.533a.853.853 0 10.001-1.707.853.853 0 00-.001 1.707zm-8.537 0a.853.853 0 10.001-1.707.853.853 0 00-.001 1.707zm-8.537 0a.853.853 0 100-1.707.853.853 0 000 1.707zm-8.538 0a.853.853 0 10.001-1.707.853.853 0 00-.001 1.707zm-8.538 0a.853.853 0 10.001-1.707.853.853 0 00-.001 1.707zm-8.537 0a.854.854 0 100-1.708.854.854 0 000 1.708zm-8.537 0a.853.853 0 100-1.707.853.853 0 000 1.707zm-8.538 0a.854.854 0 100-1.708.854.854 0 000 1.708zm-8.537 0a.853.853 0 100-1.707.853.853 0 000 1.707zm-8.538 0a.854.854 0 100-1.708.854.854 0 000 1.708zm-8.538 0a.853.853 0 10.001-1.707.853.853 0 00-.001 1.707zm85.375-8.533a.853.853 0 10.001-1.707.853.853 0 00-.001 1.707zm-8.537 0a.853.853 0 10.001-1.707.853.853 0 00-.001 1.707zm-8.537 0a.853.853 0 100-1.707.853.853 0 000 1.707zm-8.538 0a.853.853 0 10.001-1.707.853.853 0 00-.001 1.707zm-8.538 0a.853.853 0 10.001-1.707.853.853 0 00-.001 1.707zm-8.537 0a.854.854 0 100-1.708.854.854 0 000 1.708zm-8.537 0a.853.853 0 100-1.707.853.853 0 000 1.707zm-8.538 0a.854.854 0 100-1.708.854.854 0 000 1.708zm-8.537 0a.853.853 0 100-1.707.853.853 0 000 1.707zm-8.538 0a.854.854 0 100-1.708.854.854 0 000 1.708zm-8.538 0a.853.853 0 10.001-1.707.853.853 0 00-.001 1.707zm85.375-8.534a.853.853 0 10.001-1.707.853.853 0 00-.001 1.707zm-8.537 0a.853.853 0 10.001-1.707.853.853 0 00-.001 1.707zm-8.537 0a.853.853 0 100-1.706.853.853 0 000 1.706zm-8.538 0a.853.853 0 10.001-1.707.853.853 0 00-.001 1.707zm-8.538 0a.853.853 0 10.001-1.707.853.853 0 00-.001 1.707zm-8.537 0a.854.854 0 100-1.708.854.854 0 000 1.708zm-8.537 0a.853.853 0 100-1.706.853.853 0 000 1.706zm-8.538 0a.854.854 0 100-1.708.854.854 0 000 1.708zm-8.537 0a.853.853 0 100-1.706.853.853 0 000 1.706zm-8.538 0a.854.854 0 100-1.708.854.854 0 000 1.708zm-8.538 0a.853.853 0 10.001-1.707.853.853 0 00-.001 1.707zm85.375 34.134a.853.853 0 10.001-1.707.853.853 0 00-.001 1.707zm-8.537 0a.853.853 0 10.001-1.707.853.853 0 00-.001 1.707zm-8.537 0a.853.853 0 100-1.707.853.853 0 000 1.707zm-8.538 0a.853.853 0 10.001-1.707.853.853 0 00-.001 1.707zm-8.538 0a.853.853 0 10.001-1.707.853.853 0 00-.001 1.707zm-8.537 0a.854.854 0 100-1.708.854.854 0 000 1.708zm-8.537 0a.853.853 0 100-1.707.853.853 0 000 1.707zm-8.538 0a.854.854 0 100-1.708.854.854 0 000 1.708zm-8.537 0a.853.853 0 100-1.707.853.853 0 000 1.707zm-8.538 0a.854.854 0 100-1.708.854.854 0 000 1.708zm-8.538 0a.853.853 0 10.001-1.707.853.853 0 00-.001 1.707zm-8.537-8.534a.853.853 0 100-1.707.853.853 0 000 1.707zm-8.538 0a.853.853 0 100-1.707.853.853 0 000 1.707zm-8.537 0a.853.853 0 100-1.707.853.853 0 000 1.707zm-8.538 0a.853.853 0 100-1.707.853.853 0 000 1.707zm-8.537 0a.853.853 0 100-1.707.853.853 0 000 1.707zm-8.537 0a.853.853 0 100-1.707.853.853 0 000 1.707zm-8.538 0a.853.853 0 100-1.707.853.853 0 000 1.707zm-8.538 0a.853.853 0 10.001-1.707.853.853 0 000 1.707zm-8.537 0a.853.853 0 100-1.707.853.853 0 000 1.707zm-8.538 0a.853.853 0 100-1.707.853.853 0 000 1.707zm-8.537 0a.853.853 0 100-1.707.853.853 0 000 1.707zm-8.538 0a.854.854 0 100-1.707.854.854 0 000 1.707zm93.913-8.533a.854.854 0 100-1.707.854.854 0 000 1.707zm-8.538 0a.854.854 0 100-1.707.854.854 0 000 1.707zm-8.537 0a.854.854 0 100-1.707.854.854 0 000 1.707zm-8.538 0a.854.854 0 100-1.707.854.854 0 000 1.707zm-8.537 0a.854.854 0 100-1.707.854.854 0 000 1.707zm-8.537 0a.854.854 0 100-1.707.854.854 0 000 1.707zm-8.538 0a.854.854 0 100-1.707.854.854 0 000 1.707zm-8.538 0a.854.854 0 100-1.707.854.854 0 000 1.707zm-8.537 0a.854.854 0 100-1.707.854.854 0 000 1.707zm-8.538 0a.854.854 0 100-1.707.854.854 0 000 1.707zm-8.537 0a.854.854 0 100-1.707.854.854 0 000 1.707zm-8.538 0a.854.854 0 100-1.707.854.854 0 000 1.707zm93.913-8.533a.854.854 0 100-1.707.854.854 0 000 1.707zm-8.538 0a.854.854 0 100-1.707.854.854 0 000 1.707zm-8.537 0a.854.854 0 100-1.707.854.854 0 000 1.707zm-8.538 0a.854.854 0 100-1.707.854.854 0 000 1.707zm-8.537 0a.854.854 0 100-1.707.854.854 0 000 1.707zm-8.537 0a.854.854 0 100-1.707.854.854 0 000 1.707zm-8.538 0a.854.854 0 100-1.707.854.854 0 000 1.707zm-8.538 0a.854.854 0 100-1.707.854.854 0 000 1.707zm-8.537 0a.854.854 0 100-1.707.854.854 0 000 1.707zm-8.538 0a.854.854 0 100-1.707.854.854 0 000 1.707zm-8.537 0a.854.854 0 100-1.707.854.854 0 000 1.707zm-8.538 0a.854.854 0 100-1.707.854.854 0 000 1.707zm93.913-8.534a.853.853 0 100-1.707.853.853 0 000 1.707zm-8.538 0a.853.853 0 100-1.707.853.853 0 000 1.707zm-8.537 0a.853.853 0 100-1.707.853.853 0 000 1.707zm-8.538 0a.853.853 0 100-1.707.853.853 0 000 1.707zm-8.537 0a.853.853 0 100-1.707.853.853 0 000 1.707zm-8.537 0a.853.853 0 100-1.707.853.853 0 000 1.707zm-8.538 0a.853.853 0 100-1.707.853.853 0 000 1.707zm-8.538 0a.853.853 0 10.001-1.707.853.853 0 000 1.707zm-8.537 0a.853.853 0 100-1.707.853.853 0 000 1.707zm-8.538 0a.853.853 0 100-1.707.853.853 0 000 1.707zm-8.537 0a.853.853 0 100-1.707.853.853 0 000 1.707zm-8.538 0a.854.854 0 100-1.707.854.854 0 000 1.707zm93.913 34.134a.853.853 0 100-1.707.853.853 0 000 1.707zm-8.538 0a.853.853 0 100-1.707.853.853 0 000 1.707zm-8.537 0a.853.853 0 100-1.707.853.853 0 000 1.707zm-8.538 0a.853.853 0 100-1.707.853.853 0 000 1.707zm-8.537 0a.853.853 0 100-1.707.853.853 0 000 1.707zm-8.537 0a.853.853 0 100-1.707.853.853 0 000 1.707zm-8.538 0a.853.853 0 100-1.707.853.853 0 000 1.707zm-8.538 0a.853.853 0 10.001-1.707.853.853 0 000 1.707zm-8.537 0a.853.853 0 100-1.707.853.853 0 000 1.707zm-8.538 0a.853.853 0 100-1.707.853.853 0 000 1.707zm-8.537 0a.853.853 0 100-1.707.853.853 0 000 1.707zm-8.538 0a.854.854 0 100-1.707.854.854 0 000 1.707zM189.037 44.76a.853.853 0 10.001-1.707.853.853 0 00-.001 1.707zm-8.537 0a.853.853 0 10.001-1.707.853.853 0 00-.001 1.707zm-8.537 0a.853.853 0 100-1.706.853.853 0 000 1.706zm-8.538 0a.853.853 0 10.001-1.707.853.853 0 00-.001 1.707zm-8.538 0a.853.853 0 10.001-1.707.853.853 0 00-.001 1.707zm-8.537 0a.854.854 0 100-1.708.854.854 0 000 1.708zm-8.537 0a.853.853 0 100-1.706.853.853 0 000 1.706zm-8.538 0a.854.854 0 100-1.708.854.854 0 000 1.708zm-8.537 0a.853.853 0 100-1.706.853.853 0 000 1.706zm-8.538 0a.854.854 0 100-1.708.854.854 0 000 1.708zm-8.538 0a.853.853 0 10.001-1.707.853.853 0 00-.001 1.707zm-8.537 0a.853.853 0 100-1.707.853.853 0 000 1.707zm-8.538 0a.853.853 0 100-1.707.853.853 0 000 1.707zm-8.537 0a.853.853 0 100-1.707.853.853 0 000 1.707zm-8.538 0a.853.853 0 100-1.707.853.853 0 000 1.707zm-8.537 0a.853.853 0 100-1.707.853.853 0 000 1.707zm-8.537 0a.853.853 0 100-1.707.853.853 0 000 1.707zm-8.538 0a.853.853 0 100-1.707.853.853 0 000 1.707zm-8.538 0a.853.853 0 10.001-1.707.853.853 0 000 1.707zm-8.537 0a.853.853 0 100-1.707.853.853 0 000 1.707zm-8.538 0a.853.853 0 100-1.707.853.853 0 000 1.707zm-8.537 0a.853.853 0 100-1.707.853.853 0 000 1.707zm-8.538 0a.854.854 0 100-1.707.854.854 0 000 1.707zm187.825-17.066a.853.853 0 10.001-1.707.853.853 0 00-.001 1.707zm-8.537 0a.853.853 0 10.001-1.707.853.853 0 00-.001 1.707zm-8.537 0a.853.853 0 100-1.707.853.853 0 000 1.707zm-8.538 0a.853.853 0 10.001-1.707.853.853 0 00-.001 1.707zm-8.538 0a.853.853 0 10.001-1.707.853.853 0 00-.001 1.707zm-8.537 0a.854.854 0 100-1.709.854.854 0 000 1.709zm-8.537 0a.853.853 0 100-1.707.853.853 0 000 1.707zm-8.538 0a.854.854 0 100-1.709.854.854 0 000 1.709zm-8.537 0a.853.853 0 100-1.707.853.853 0 000 1.707zm-8.538 0a.854.854 0 100-1.709.854.854 0 000 1.709zm-8.538 0a.853.853 0 10.001-1.707.853.853 0 00-.001 1.707zm85.375-8.534a.853.853 0 10.001-1.707.853.853 0 00-.001 1.707zm-8.537 0a.853.853 0 10.001-1.707.853.853 0 00-.001 1.707zm-8.537 0a.853.853 0 100-1.706.853.853 0 000 1.706zm-8.538 0a.853.853 0 10.001-1.707.853.853 0 00-.001 1.707zm-8.538 0a.853.853 0 10.001-1.707.853.853 0 00-.001 1.707zm-8.537 0a.854.854 0 100-1.708.854.854 0 000 1.708zm-8.537 0a.853.853 0 100-1.706.853.853 0 000 1.706zm-8.538 0a.854.854 0 100-1.708.854.854 0 000 1.708zm-8.537 0a.853.853 0 100-1.706.853.853 0 000 1.706zm-8.538 0a.854.854 0 100-1.708.854.854 0 000 1.708zm-8.538 0a.853.853 0 10.001-1.707.853.853 0 00-.001 1.707zm85.375-8.533a.853.853 0 10.001-1.707.853.853 0 00-.001 1.707zm-8.537 0a.853.853 0 10.001-1.707.853.853 0 00-.001 1.707zm-8.537 0a.853.853 0 100-1.707.853.853 0 000 1.707zm-8.538 0a.853.853 0 10.001-1.707.853.853 0 00-.001 1.707zm-8.538 0a.853.853 0 10.001-1.707.853.853 0 00-.001 1.707zm-8.537 0a.854.854 0 100-1.708.854.854 0 000 1.708zm-8.537 0a.853.853 0 100-1.707.853.853 0 000 1.707zm-8.538 0a.854.854 0 100-1.708.854.854 0 000 1.708zm-8.537 0a.853.853 0 100-1.707.853.853 0 000 1.707zm-8.538 0a.854.854 0 100-1.708.854.854 0 000 1.708zm-8.538 0a.853.853 0 10.001-1.707.853.853 0 00-.001 1.707zm85.375-8.534a.853.853 0 10.001-1.707.853.853 0 00-.001 1.707zm-8.537 0a.853.853 0 10.001-1.707.853.853 0 00-.001 1.707zm-8.537 0a.853.853 0 100-1.706.853.853 0 000 1.706zm-8.538 0a.853.853 0 10.001-1.707.853.853 0 00-.001 1.707zm-8.538 0a.853.853 0 10.001-1.707.853.853 0 00-.001 1.707zm-8.537 0a.854.854 0 100-1.708.854.854 0 000 1.708zm-8.537 0a.853.853 0 100-1.706.853.853 0 000 1.706zm-8.538 0a.854.854 0 100-1.708.854.854 0 000 1.708zm-8.537 0a.853.853 0 100-1.706.853.853 0 000 1.706zm-8.538 0a.854.854 0 100-1.708.854.854 0 000 1.708zm-8.538 0a.853.853 0 10.001-1.707.853.853 0 00-.001 1.707zm85.375 34.134a.853.853 0 10.001-1.707.853.853 0 00-.001 1.707zm-8.537 0a.853.853 0 10.001-1.707.853.853 0 00-.001 1.707zm-8.537 0a.853.853 0 100-1.707.853.853 0 000 1.707zm-8.538 0a.853.853 0 10.001-1.707.853.853 0 00-.001 1.707zm-8.538 0a.853.853 0 10.001-1.707.853.853 0 00-.001 1.707zm-8.537 0a.854.854 0 100-1.709.854.854 0 000 1.709zm-8.537 0a.853.853 0 100-1.707.853.853 0 000 1.707zm-8.538 0a.854.854 0 100-1.709.854.854 0 000 1.709zm-8.537 0a.853.853 0 100-1.707.853.853 0 000 1.707zm-8.538 0a.854.854 0 100-1.709.854.854 0 000 1.709zm-8.538 0a.853.853 0 10.001-1.707.853.853 0 00-.001 1.707zm-8.537-8.533a.854.854 0 100-1.708.854.854 0 000 1.707zm-8.538 0a.854.854 0 100-1.708.854.854 0 000 1.707zm-8.537 0a.854.854 0 100-1.708.854.854 0 000 1.707zm-8.538 0a.854.854 0 100-1.708.854.854 0 000 1.707zm-8.537 0a.854.854 0 100-1.708.854.854 0 000 1.707zm-8.537 0a.854.854 0 100-1.708.854.854 0 000 1.707zm-8.538 0a.854.854 0 100-1.708.854.854 0 000 1.707zm-8.538 0a.854.854 0 100-1.708.854.854 0 000 1.707zm-8.537 0a.854.854 0 100-1.708.854.854 0 000 1.707zm-8.538 0a.854.854 0 100-1.708.854.854 0 000 1.707zm-8.537 0a.854.854 0 100-1.708.854.854 0 000 1.707zm-8.538 0a.854.854 0 100-1.708.854.854 0 000 1.707zm93.913-8.534a.853.853 0 100-1.707.853.853 0 000 1.707zm-8.538 0a.853.853 0 100-1.707.853.853 0 000 1.707zm-8.537 0a.853.853 0 100-1.707.853.853 0 000 1.707zm-8.538 0a.853.853 0 100-1.707.853.853 0 000 1.707zm-8.537 0a.853.853 0 100-1.707.853.853 0 000 1.707zm-8.537 0a.853.853 0 100-1.707.853.853 0 000 1.707zm-8.538 0a.853.853 0 100-1.707.853.853 0 000 1.707zm-8.538 0a.853.853 0 10.001-1.707.853.853 0 000 1.707zm-8.537 0a.853.853 0 100-1.707.853.853 0 000 1.707zm-8.538 0a.853.853 0 100-1.707.853.853 0 000 1.707zm-8.537 0a.853.853 0 100-1.707.853.853 0 000 1.707zm-8.538 0a.854.854 0 100-1.707.854.854 0 000 1.707zm93.913-8.533a.853.853 0 100-1.707.853.853 0 000 1.707zm-8.538 0a.853.853 0 100-1.707.853.853 0 000 1.707zm-8.537 0a.853.853 0 100-1.707.853.853 0 000 1.707zm-8.538 0a.853.853 0 100-1.707.853.853 0 000 1.707zm-8.537 0a.853.853 0 100-1.707.853.853 0 000 1.707zm-8.537 0a.853.853 0 100-1.707.853.853 0 000 1.707zm-8.538 0a.853.853 0 100-1.707.853.853 0 000 1.707zm-8.538 0a.853.853 0 10.001-1.707.853.853 0 000 1.707zm-8.537 0a.853.853 0 100-1.707.853.853 0 000 1.707zm-8.538 0a.853.853 0 100-1.707.853.853 0 000 1.707zm-8.537 0a.853.853 0 100-1.707.853.853 0 000 1.707zm-8.538 0a.854.854 0 100-1.707.854.854 0 000 1.707zm93.913-8.534a.854.854 0 100-1.707.854.854 0 000 1.707zm-8.538 0a.854.854 0 100-1.707.854.854 0 000 1.707zm-8.537 0a.854.854 0 100-1.707.854.854 0 000 1.707zm-8.538 0a.854.854 0 100-1.707.854.854 0 000 1.707zm-8.537 0a.854.854 0 100-1.707.854.854 0 000 1.707zm-8.537 0a.854.854 0 100-1.707.854.854 0 000 1.707zm-8.538 0a.854.854 0 100-1.707.854.854 0 000 1.707zm-8.538 0a.854.854 0 100-1.707.854.854 0 000 1.707zm-8.537 0a.854.854 0 100-1.707.854.854 0 000 1.707zm-8.538 0a.854.854 0 100-1.707.854.854 0 000 1.707zm-8.537 0a.854.854 0 100-1.707.854.854 0 000 1.707zm-8.538 0a.854.854 0 100-1.707.854.854 0 000 1.707zm93.913 34.134a.854.854 0 100-1.707.854.854 0 000 1.707zm-8.538 0a.854.854 0 100-1.707.854.854 0 000 1.707zm-8.537 0a.854.854 0 100-1.707.854.854 0 000 1.707zm-8.538 0a.854.854 0 100-1.707.854.854 0 000 1.707zm-8.537 0a.854.854 0 100-1.707.854.854 0 000 1.707zm-8.537 0a.854.854 0 100-1.707.854.854 0 000 1.707zm-8.538 0a.854.854 0 100-1.707.854.854 0 000 1.707zm-8.538 0a.854.854 0 100-1.707.854.854 0 000 1.707zm-8.537 0a.854.854 0 100-1.707.854.854 0 000 1.707zm-8.538 0a.854.854 0 100-1.707.854.854 0 000 1.707zm-8.537 0a.854.854 0 100-1.707.854.854 0 000 1.707zm-8.538 0a.854.854 0 100-1.707.854.854 0 000 1.707z" fill="#00C8FF"/></svg>